<?xml version="1.0" encoding="UTF-8" standalone="no"?>
<!DOCTYPE svg PUBLIC "-//W3C//DTD SVG 1.1//EN"
 "http://www.w3.org/Graphics/SVG/1.1/DTD/svg11.dtd">
<!-- Generated by graphviz version 2.40.1 (20161225.0304)
 -->
<!-- Title: dependency&#45;cruiser output Pages: 1 -->
<svg width="767pt" height="668pt"
 viewBox="0.00 0.00 766.88 667.50" xmlns="http://www.w3.org/2000/svg" xmlns:xlink="http://www.w3.org/1999/xlink">
<g id="graph0" class="graph" transform="scale(1 1) rotate(0) translate(4 663.5)">
<title>dependency&#45;cruiser output</title>
<polygon fill="#ffffff" stroke="transparent" points="-4,4 -4,-663.5 762.876,-663.5 762.876,4 -4,4"/>
<g id="clust1" class="cluster">
<title>cluster_entry</title>
<path fill="#ffffff" stroke="#000000" stroke-width="2" d="M89.27,-467C89.27,-467 327.0767,-467 327.0767,-467 333.0767,-467 339.0767,-473 339.0767,-479 339.0767,-479 339.0767,-593 339.0767,-593 339.0767,-599 333.0767,-605 327.0767,-605 327.0767,-605 89.27,-605 89.27,-605 83.27,-605 77.27,-599 77.27,-593 77.27,-593 77.27,-479 77.27,-479 77.27,-473 83.27,-467 89.27,-467"/>
<text text-anchor="middle" x="208.1733" y="-593.8" font-family="Helvetica,sans-Serif" font-weight="bold" font-size="9.00" fill="#000000">entry</text>
</g>
<g id="clust2" class="cluster">
<title>cluster_fields</title>
<path fill="#ffffff" stroke="#000000" stroke-width="2" d="M263.0596,-8C263.0596,-8 642.3511,-8 642.3511,-8 648.3511,-8 654.3511,-14 654.3511,-20 654.3511,-20 654.3511,-178 654.3511,-178 654.3511,-184 648.3511,-190 642.3511,-190 642.3511,-190 263.0596,-190 263.0596,-190 257.0596,-190 251.0596,-184 251.0596,-178 251.0596,-178 251.0596,-20 251.0596,-20 251.0596,-14 257.0596,-8 263.0596,-8"/>
<text text-anchor="middle" x="452.7053" y="-178.8" font-family="Helvetica,sans-Serif" font-weight="bold" font-size="9.00" fill="#000000">fields</text>
</g>
<g id="clust3" class="cluster">
<title>cluster_filters</title>
<path fill="#ffffff" stroke="#000000" stroke-width="2" d="M359.0767,-423C359.0767,-423 642.1819,-423 642.1819,-423 648.1819,-423 654.1819,-429 654.1819,-435 654.1819,-435 654.1819,-520 654.1819,-520 654.1819,-526 648.1819,-532 642.1819,-532 642.1819,-532 359.0767,-532 359.0767,-532 353.0767,-532 347.0767,-526 347.0767,-520 347.0767,-520 347.0767,-435 347.0767,-435 347.0767,-429 353.0767,-423 359.0767,-423"/>
<text text-anchor="middle" x="500.6293" y="-520.8" font-family="Helvetica,sans-Serif" font-weight="bold" font-size="9.00" fill="#000000">filters</text>
</g>
<g id="clust4" class="cluster">
<title>cluster_hooks</title>
<path fill="#ffffff" stroke="#000000" stroke-width="2" d="M269.0667,-287C269.0667,-287 533.1443,-287 533.1443,-287 539.1443,-287 545.1443,-293 545.1443,-299 545.1443,-299 545.1443,-399 545.1443,-399 545.1443,-405 539.1443,-411 533.1443,-411 533.1443,-411 269.0667,-411 269.0667,-411 263.0667,-411 257.0667,-405 257.0667,-399 257.0667,-399 257.0667,-299 257.0667,-299 257.0667,-293 263.0667,-287 269.0667,-287"/>
<text text-anchor="middle" x="401.1055" y="-399.8" font-family="Helvetica,sans-Serif" font-weight="bold" font-size="9.00" fill="#000000">hooks</text>
</g>
<g id="clust5" class="cluster">
<title>cluster_inputs</title>
<path fill="#ffffff" stroke="#000000" stroke-width="2" d="M374.8374,-540C374.8374,-540 738.876,-540 738.876,-540 744.876,-540 750.876,-546 750.876,-552 750.876,-552 750.876,-623 750.876,-623 750.876,-629 744.876,-635 738.876,-635 738.876,-635 374.8374,-635 374.8374,-635 368.8374,-635 362.8374,-629 362.8374,-623 362.8374,-623 362.8374,-552 362.8374,-552 362.8374,-546 368.8374,-540 374.8374,-540"/>
<text text-anchor="middle" x="556.8567" y="-623.8" font-family="Helvetica,sans-Serif" font-weight="bold" font-size="9.00" fill="#000000">inputs</text>
</g>
<g id="clust6" class="cluster">
<title>cluster_providers</title>
<path fill="#ffffff" stroke="#000000" stroke-width="2" d="M374.8374,-199C374.8374,-199 544.6536,-199 544.6536,-199 550.6536,-199 556.6536,-205 556.6536,-211 556.6536,-211 556.6536,-267 556.6536,-267 556.6536,-273 550.6536,-279 544.6536,-279 544.6536,-279 374.8374,-279 374.8374,-279 368.8374,-279 362.8374,-273 362.8374,-267 362.8374,-267 362.8374,-211 362.8374,-211 362.8374,-205 368.8374,-199 374.8374,-199"/>
<text text-anchor="middle" x="459.7455" y="-267.8" font-family="Helvetica,sans-Serif" font-weight="bold" font-size="9.00" fill="#000000">providers</text>
</g>
<!-- LocaleSwitcher.tsx -->
<g id="node1" class="node">
<title>LocaleSwitcher.tsx</title>
<g id="a_node1"><a xlink:href="LocaleSwitcher.tsx" xlink:title="LocaleSwitcher.tsx">
<path fill="#bbfeff" stroke="#000000" d="M151.6446,-659.5C151.6446,-659.5 72.8955,-659.5 72.8955,-659.5 70.0622,-659.5 67.2288,-656.6667 67.2288,-653.8333 67.2288,-653.8333 67.2288,-648.1667 67.2288,-648.1667 67.2288,-645.3333 70.0622,-642.5 72.8955,-642.5 72.8955,-642.5 151.6446,-642.5 151.6446,-642.5 154.4779,-642.5 157.3112,-645.3333 157.3112,-648.1667 157.3112,-648.1667 157.3112,-653.8333 157.3112,-653.8333 157.3112,-656.6667 154.4779,-659.5 151.6446,-659.5"/>
<text text-anchor="middle" x="112.27" y="-648.3" font-family="Helvetica,sans-Serif" font-size="9.00" fill="#000000">LocaleSwitcher.tsx</text>
</a>
</g>
</g>
<!-- entry/EntryCreate.tsx -->
<g id="node2" class="node">
<title>entry/EntryCreate.tsx</title>
<g id="a_node2"><a xlink:href="entry/EntryCreate.tsx" xlink:title="EntryCreate.tsx">
<path fill="#bbfeff" stroke="#000000" d="M325.42,-579.5C325.42,-579.5 258.7133,-579.5 258.7133,-579.5 255.88,-579.5 253.0466,-576.6667 253.0466,-573.8333 253.0466,-573.8333 253.0466,-568.1667 253.0466,-568.1667 253.0466,-565.3333 255.88,-562.5 258.7133,-562.5 258.7133,-562.5 325.42,-562.5 325.42,-562.5 328.2533,-562.5 331.0867,-565.3333 331.0867,-568.1667 331.0867,-568.1667 331.0867,-573.8333 331.0867,-573.8333 331.0867,-576.6667 328.2533,-579.5 325.42,-579.5"/>
<text text-anchor="middle" x="292.0667" y="-568.3" font-family="Helvetica,sans-Serif" font-size="9.00" fill="#000000">EntryCreate.tsx</text>
</a>
</g>
</g>
<!-- hooks/useFields.tsx -->
<g id="node3" class="node">
<title>hooks/useFields.tsx</title>
<g id="a_node3"><a xlink:href="hooks/useFields.tsx" xlink:title="useFields.tsx">
<path fill="#bbfeff" stroke="#000000" d="M426.1915,-385.5C426.1915,-385.5 369.4833,-385.5 369.4833,-385.5 366.65,-385.5 363.8167,-382.6667 363.8167,-379.8333 363.8167,-379.8333 363.8167,-374.1667 363.8167,-374.1667 363.8167,-371.3333 366.65,-368.5 369.4833,-368.5 369.4833,-368.5 426.1915,-368.5 426.1915,-368.5 429.0248,-368.5 431.8581,-371.3333 431.8581,-374.1667 431.8581,-374.1667 431.8581,-379.8333 431.8581,-379.8333 431.8581,-382.6667 429.0248,-385.5 426.1915,-385.5"/>
<text text-anchor="middle" x="397.8374" y="-374.3" font-family="Helvetica,sans-Serif" font-size="9.00" fill="#000000">useFields.tsx</text>
</a>
</g>
</g>
<!-- entry/EntryCreate.tsx&#45;&gt;hooks/useFields.tsx -->
<g id="edge1" class="edge">
<title>entry/EntryCreate.tsx&#45;&gt;hooks/useFields.tsx</title>
<path fill="none" stroke="#000000" stroke-width="2" stroke-opacity="0.200000" d="M331.4755,-563.6216C334.3602,-561.8478 336.9618,-559.6703 339.0767,-557 358.0106,-533.0933 333.4517,-447.2834 347.0767,-420 353.5509,-407.0356 365.8722,-396.4502 376.7539,-389.026"/>
<polygon fill="#000000" fill-opacity="0.200000" stroke="#000000" stroke-width="2" stroke-opacity="0.200000" points="378.0695,-390.6752 381.9483,-385.6388 375.7753,-387.1571 378.0695,-390.6752"/>
</g>
<!-- inputs/inputProps.tsx -->
<g id="node4" class="node">
<title>inputs/inputProps.tsx</title>
<g id="a_node4"><a xlink:href="inputs/inputProps.tsx" xlink:title="inputProps.tsx">
<path fill="#bbfeff" stroke="#000000" d="M539.2457,-572.5C539.2457,-572.5 477.5234,-572.5 477.5234,-572.5 474.69,-572.5 471.8567,-569.6667 471.8567,-566.8333 471.8567,-566.8333 471.8567,-561.1667 471.8567,-561.1667 471.8567,-558.3333 474.69,-555.5 477.5234,-555.5 477.5234,-555.5 539.2457,-555.5 539.2457,-555.5 542.079,-555.5 544.9124,-558.3333 544.9124,-561.1667 544.9124,-561.1667 544.9124,-566.8333 544.9124,-566.8333 544.9124,-569.6667 542.079,-572.5 539.2457,-572.5"/>
<text text-anchor="middle" x="508.3845" y="-561.3" font-family="Helvetica,sans-Serif" font-size="9.00" fill="#000000">inputProps.tsx</text>
</a>
</g>
</g>
<!-- entry/EntryCreate.tsx&#45;&gt;inputs/inputProps.tsx -->
<g id="edge2" class="edge">
<title>entry/EntryCreate.tsx&#45;&gt;inputs/inputProps.tsx</title>
<path fill="none" stroke="#000000" stroke-width="2" stroke-opacity="0.200000" d="M307.383,-579.7247C318.115,-585.3184 333.0006,-592.0631 347.0767,-595 390.6,-604.081 405.7049,-611.1899 447.113,-595 454.4362,-592.1368 453.4519,-587.1781 460.113,-583 464.9316,-579.9776 470.3106,-577.2901 475.6803,-574.9562"/>
<polygon fill="#000000" fill-opacity="0.200000" stroke="#000000" stroke-width="2" stroke-opacity="0.200000" points="476.7317,-576.7941 481.4763,-572.5633 475.1289,-572.912 476.7317,-576.7941"/>
</g>
<!-- inputs/TypeInput.tsx -->
<g id="node5" class="node">
<title>inputs/TypeInput.tsx</title>
<g id="a_node5"><a xlink:href="inputs/TypeInput.tsx" xlink:title="TypeInput.tsx">
<path fill="#bbfeff" stroke="#000000" d="M537.2536,-605.5C537.2536,-605.5 479.5155,-605.5 479.5155,-605.5 476.6821,-605.5 473.8488,-602.6667 473.8488,-599.8333 473.8488,-599.8333 473.8488,-594.1667 473.8488,-594.1667 473.8488,-591.3333 476.6821,-588.5 479.5155,-588.5 479.5155,-588.5 537.2536,-588.5 537.2536,-588.5 540.0869,-588.5 542.9203,-591.3333 542.9203,-594.1667 542.9203,-594.1667 542.9203,-599.8333 542.9203,-599.8333 542.9203,-602.6667 540.0869,-605.5 537.2536,-605.5"/>
<text text-anchor="middle" x="508.3845" y="-594.3" font-family="Helvetica,sans-Serif" font-size="9.00" fill="#000000">TypeInput.tsx</text>
</a>
</g>
</g>
<!-- entry/EntryCreate.tsx&#45;&gt;inputs/TypeInput.tsx -->
<g id="edge3" class="edge">
<title>entry/EntryCreate.tsx&#45;&gt;inputs/TypeInput.tsx</title>
<path fill="none" stroke="#000000" stroke-width="2" stroke-opacity="0.200000" d="M300.8626,-579.6609C311.0127,-588.9892 328.6818,-603.2643 347.0767,-609 388.9723,-622.0635 439.828,-614.7063 473.0925,-606.9917"/>
<polygon fill="#000000" fill-opacity="0.200000" stroke="#000000" stroke-width="2" stroke-opacity="0.200000" points="473.7486,-608.994 479.0929,-605.5519 472.7685,-604.9099 473.7486,-608.994"/>
</g>
<!-- hooks/useApi.tsx -->
<g id="node35" class="node">
<title>hooks/useApi.tsx</title>
<g id="a_node35"><a xlink:href="hooks/useApi.tsx" xlink:title="useApi.tsx">
<path fill="#bbfeff" stroke="#000000" d="M531.2394,-374.5C531.2394,-374.5 485.5297,-374.5 485.5297,-374.5 482.6963,-374.5 479.863,-371.6667 479.863,-368.8333 479.863,-368.8333 479.863,-363.1667 479.863,-363.1667 479.863,-360.3333 482.6963,-357.5 485.5297,-357.5 485.5297,-357.5 531.2394,-357.5 531.2394,-357.5 534.0727,-357.5 536.906,-360.3333 536.906,-363.1667 536.906,-363.1667 536.906,-368.8333 536.906,-368.8333 536.906,-371.6667 534.0727,-374.5 531.2394,-374.5"/>
<text text-anchor="middle" x="508.3845" y="-363.3" font-family="Helvetica,sans-Serif" font-size="9.00" fill="#000000">useApi.tsx</text>
</a>
</g>
</g>
<!-- hooks/useFields.tsx&#45;&gt;hooks/useApi.tsx -->
<g id="edge52" class="edge">
<title>hooks/useFields.tsx&#45;&gt;hooks/useApi.tsx</title>
<path fill="none" stroke="#000000" stroke-width="2" stroke-opacity="0.200000" d="M431.9072,-373.6099C445.2207,-372.2851 460.4687,-370.7679 473.8287,-369.4385"/>
<polygon fill="#000000" fill-opacity="0.200000" stroke="#000000" stroke-width="2" stroke-opacity="0.200000" points="474.0579,-371.5261 479.8204,-368.8423 473.642,-367.3468 474.0579,-371.5261"/>
</g>
<!-- inputs/EntriesInput.tsx -->
<g id="node31" class="node">
<title>inputs/EntriesInput.tsx</title>
<g id="a_node31"><a xlink:href="inputs/EntriesInput.tsx" xlink:title="EntriesInput.tsx">
<path fill="#bbfeff" stroke="#000000" d="M642.0326,-565.5C642.0326,-565.5 575.3083,-565.5 575.3083,-565.5 572.4749,-565.5 569.6416,-562.6667 569.6416,-559.8333 569.6416,-559.8333 569.6416,-554.1667 569.6416,-554.1667 569.6416,-551.3333 572.4749,-548.5 575.3083,-548.5 575.3083,-548.5 642.0326,-548.5 642.0326,-548.5 644.8659,-548.5 647.6992,-551.3333 647.6992,-554.1667 647.6992,-554.1667 647.6992,-559.8333 647.6992,-559.8333 647.6992,-562.6667 644.8659,-565.5 642.0326,-565.5"/>
<text text-anchor="middle" x="608.6704" y="-554.3" font-family="Helvetica,sans-Serif" font-size="9.00" fill="#000000">EntriesInput.tsx</text>
</a>
</g>
</g>
<!-- inputs/TypeInput.tsx&#45;&gt;inputs/EntriesInput.tsx -->
<g id="edge63" class="edge">
<title>inputs/TypeInput.tsx&#45;&gt;inputs/EntriesInput.tsx</title>
<path fill="none" stroke="#000000" stroke-width="2" stroke-opacity="0.200000" d="M532.0328,-588.4138C539.8947,-585.4977 548.6775,-582.1731 556.656,-579 565.3909,-575.526 574.8786,-571.5685 583.3302,-567.9768"/>
<polygon fill="#000000" fill-opacity="0.200000" stroke="#000000" stroke-width="2" stroke-opacity="0.200000" points="584.3,-569.8462 588.9937,-565.5591 582.651,-565.9834 584.3,-569.8462"/>
</g>
<!-- inputs/MissingInput.tsx -->
<g id="node32" class="node">
<title>inputs/MissingInput.tsx</title>
<g id="a_node32"><a xlink:href="inputs/MissingInput.tsx" xlink:title="MissingInput.tsx">
<path fill="#bbfeff" stroke="#000000" d="M736.9732,-565.5C736.9732,-565.5 668.2539,-565.5 668.2539,-565.5 665.4206,-565.5 662.5872,-562.6667 662.5872,-559.8333 662.5872,-559.8333 662.5872,-554.1667 662.5872,-554.1667 662.5872,-551.3333 665.4206,-548.5 668.2539,-548.5 668.2539,-548.5 736.9732,-548.5 736.9732,-548.5 739.8065,-548.5 742.6398,-551.3333 742.6398,-554.1667 742.6398,-554.1667 742.6398,-559.8333 742.6398,-559.8333 742.6398,-562.6667 739.8065,-565.5 736.9732,-565.5"/>
<text text-anchor="middle" x="702.6135" y="-554.3" font-family="Helvetica,sans-Serif" font-size="9.00" fill="#000000">MissingInput.tsx</text>
</a>
</g>
</g>
<!-- inputs/TypeInput.tsx&#45;&gt;inputs/MissingInput.tsx -->
<g id="edge65" class="edge">
<title>inputs/TypeInput.tsx&#45;&gt;inputs/MissingInput.tsx</title>
<path fill="none" stroke="#000000" stroke-width="2" stroke-opacity="0.200000" d="M543.1382,-591.2947C582.844,-584.7373 643.7257,-574.5494 654.3511,-572 659.8649,-570.677 665.6706,-569.0661 671.2693,-567.3969"/>
<polygon fill="#000000" fill-opacity="0.200000" stroke="#000000" stroke-width="2" stroke-opacity="0.200000" points="672.1146,-569.3346 677.2396,-565.5737 670.8879,-565.3177 672.1146,-569.3346"/>
</g>
<!-- inputs/EntryInput.tsx -->
<g id="node44" class="node">
<title>inputs/EntryInput.tsx</title>
<g id="a_node44"><a xlink:href="inputs/EntryInput.tsx" xlink:title="EntryInput.tsx">
<path fill="#bbfeff" stroke="#000000" d="M638.5277,-609.5C638.5277,-609.5 578.8131,-609.5 578.8131,-609.5 575.9798,-609.5 573.1465,-606.6667 573.1465,-603.8333 573.1465,-603.8333 573.1465,-598.1667 573.1465,-598.1667 573.1465,-595.3333 575.9798,-592.5 578.8131,-592.5 578.8131,-592.5 638.5277,-592.5 638.5277,-592.5 641.361,-592.5 644.1943,-595.3333 644.1943,-598.1667 644.1943,-598.1667 644.1943,-603.8333 644.1943,-603.8333 644.1943,-606.6667 641.361,-609.5 638.5277,-609.5"/>
<text text-anchor="middle" x="608.6704" y="-598.3" font-family="Helvetica,sans-Serif" font-size="9.00" fill="#000000">EntryInput.tsx</text>
</a>
</g>
</g>
<!-- inputs/TypeInput.tsx&#45;&gt;inputs/EntryInput.tsx -->
<g id="edge64" class="edge">
<title>inputs/TypeInput.tsx&#45;&gt;inputs/EntryInput.tsx</title>
<path fill="none" stroke="#000000" stroke-width="2" stroke-opacity="0.200000" d="M543.1782,-598.3878C550.6917,-598.6875 558.714,-599.0074 566.4757,-599.317"/>
<polygon fill="#000000" fill-opacity="0.200000" stroke="#000000" stroke-width="2" stroke-opacity="0.200000" points="566.8383,-601.4331 572.9172,-599.574 567.0057,-597.2364 566.8383,-601.4331"/>
</g>
<!-- entry/EntryEdit.tsx -->
<g id="node6" class="node">
<title>entry/EntryEdit.tsx</title>
<g id="a_node6"><a xlink:href="entry/EntryEdit.tsx" xlink:title="EntryEdit.tsx">
<path fill="#bbfeff" stroke="#000000" d="M319.4169,-550.5C319.4169,-550.5 264.7164,-550.5 264.7164,-550.5 261.8831,-550.5 259.0498,-547.6667 259.0498,-544.8333 259.0498,-544.8333 259.0498,-539.1667 259.0498,-539.1667 259.0498,-536.3333 261.8831,-533.5 264.7164,-533.5 264.7164,-533.5 319.4169,-533.5 319.4169,-533.5 322.2502,-533.5 325.0835,-536.3333 325.0835,-539.1667 325.0835,-539.1667 325.0835,-544.8333 325.0835,-544.8333 325.0835,-547.6667 322.2502,-550.5 319.4169,-550.5"/>
<text text-anchor="middle" x="292.0667" y="-539.3" font-family="Helvetica,sans-Serif" font-size="9.00" fill="#000000">EntryEdit.tsx</text>
</a>
</g>
</g>
<!-- entry/EntryEdit.tsx&#45;&gt;hooks/useFields.tsx -->
<g id="edge4" class="edge">
<title>entry/EntryEdit.tsx&#45;&gt;hooks/useFields.tsx</title>
<path fill="none" stroke="#000000" stroke-width="2" stroke-opacity="0.200000" d="M325.4908,-537.5475C330.7215,-535.4299 335.5529,-532.3785 339.0767,-528 354.1649,-509.2515 336.157,-441.4458 347.0767,-420 353.6519,-407.0865 365.9752,-396.5021 376.8327,-389.0657"/>
<polygon fill="#000000" fill-opacity="0.200000" stroke="#000000" stroke-width="2" stroke-opacity="0.200000" points="378.1454,-390.7163 382.0134,-385.6716 375.8437,-387.2031 378.1454,-390.7163"/>
</g>
<!-- entry/EntryEdit.tsx&#45;&gt;inputs/inputProps.tsx -->
<g id="edge5" class="edge">
<title>entry/EntryEdit.tsx&#45;&gt;inputs/inputProps.tsx</title>
<path fill="none" stroke="#000000" stroke-width="2" stroke-opacity="0.200000" d="M325.111,-548.9277C330.1356,-550.9659 334.9967,-553.5992 339.0767,-557 344.8804,-561.8376 340.5978,-568.1127 347.0767,-572 387.8191,-596.4454 445.301,-585.0236 479.5106,-574.5067"/>
<polygon fill="#000000" fill-opacity="0.200000" stroke="#000000" stroke-width="2" stroke-opacity="0.200000" points="480.538,-576.3836 485.6182,-572.5624 479.2639,-572.3815 480.538,-576.3836"/>
</g>
<!-- entry/EntryEdit.tsx&#45;&gt;inputs/TypeInput.tsx -->
<g id="edge6" class="edge">
<title>entry/EntryEdit.tsx&#45;&gt;inputs/TypeInput.tsx</title>
<path fill="none" stroke="#000000" stroke-width="2" stroke-opacity="0.200000" d="M325.4013,-547.9083C330.5119,-550.0643 335.3255,-553.0012 339.0767,-557 349.1064,-567.6919 335.7487,-579.6946 347.0767,-589 381.2808,-617.0971 434.6419,-613.5832 470.5258,-606.7606"/>
<polygon fill="#000000" fill-opacity="0.200000" stroke="#000000" stroke-width="2" stroke-opacity="0.200000" points="471.1008,-608.7872 476.571,-605.5488 470.2753,-604.6691 471.1008,-608.7872"/>
</g>
<!-- entry/EntryList.tsx -->
<g id="node7" class="node">
<title>entry/EntryList.tsx</title>
<g id="a_node7"><a xlink:href="entry/EntryList.tsx" xlink:title="EntryList.tsx">
<path fill="#bbfeff" stroke="#000000" d="M318.9122,-521.5C318.9122,-521.5 265.2211,-521.5 265.2211,-521.5 262.3878,-521.5 259.5544,-518.6667 259.5544,-515.8333 259.5544,-515.8333 259.5544,-510.1667 259.5544,-510.1667 259.5544,-507.3333 262.3878,-504.5 265.2211,-504.5 265.2211,-504.5 318.9122,-504.5 318.9122,-504.5 321.7455,-504.5 324.5789,-507.3333 324.5789,-510.1667 324.5789,-510.1667 324.5789,-515.8333 324.5789,-515.8333 324.5789,-518.6667 321.7455,-521.5 318.9122,-521.5"/>
<text text-anchor="middle" x="292.0667" y="-510.3" font-family="Helvetica,sans-Serif" font-size="9.00" fill="#000000">EntryList.tsx</text>
</a>
</g>
</g>
<!-- entry/EntryList.tsx&#45;&gt;hooks/useFields.tsx -->
<g id="edge10" class="edge">
<title>entry/EntryList.tsx&#45;&gt;hooks/useFields.tsx</title>
<path fill="none" stroke="#000000" stroke-width="2" stroke-opacity="0.200000" d="M324.9163,-508.6575C330.3386,-506.5411 335.3856,-503.4618 339.0767,-499 350.324,-485.4039 338.8588,-435.6149 347.0767,-420 353.8255,-407.1764 366.1522,-396.5937 376.9681,-389.1358"/>
<polygon fill="#000000" fill-opacity="0.200000" stroke="#000000" stroke-width="2" stroke-opacity="0.200000" points="378.2761,-390.7886 382.1253,-385.7295 375.9613,-387.284 378.2761,-390.7886"/>
</g>
<!-- fields/fieldProps.tsx -->
<g id="node8" class="node">
<title>fields/fieldProps.tsx</title>
<g id="a_node8"><a xlink:href="fields/fieldProps.tsx" xlink:title="fieldProps.tsx">
<path fill="#bbfeff" stroke="#000000" d="M427.1927,-164.5C427.1927,-164.5 368.4821,-164.5 368.4821,-164.5 365.6488,-164.5 362.8154,-161.6667 362.8154,-158.8333 362.8154,-158.8333 362.8154,-153.1667 362.8154,-153.1667 362.8154,-150.3333 365.6488,-147.5 368.4821,-147.5 368.4821,-147.5 427.1927,-147.5 427.1927,-147.5 430.026,-147.5 432.8594,-150.3333 432.8594,-153.1667 432.8594,-153.1667 432.8594,-158.8333 432.8594,-158.8333 432.8594,-161.6667 430.026,-164.5 427.1927,-164.5"/>
<text text-anchor="middle" x="397.8374" y="-153.3" font-family="Helvetica,sans-Serif" font-size="9.00" fill="#000000">fieldProps.tsx</text>
</a>
</g>
</g>
<!-- entry/EntryList.tsx&#45;&gt;fields/fieldProps.tsx -->
<g id="edge7" class="edge">
<title>entry/EntryList.tsx&#45;&gt;fields/fieldProps.tsx</title>
<path fill="none" stroke="#000000" stroke-width="2" stroke-opacity="0.200000" d="M324.7121,-509.0609C330.293,-506.9221 335.4508,-503.7314 339.0767,-499 359.5621,-472.2683 331.9774,-226.1039 347.0767,-196 353.0737,-184.0434 364.4939,-174.5481 374.9855,-167.8148"/>
<polygon fill="#000000" fill-opacity="0.200000" stroke="#000000" stroke-width="2" stroke-opacity="0.200000" points="376.3204,-169.4607 380.3536,-164.5471 374.1365,-165.8731 376.3204,-169.4607"/>
</g>
<!-- fields/TypeField.tsx -->
<g id="node9" class="node">
<title>fields/TypeField.tsx</title>
<g id="a_node9"><a xlink:href="fields/TypeField.tsx" xlink:title="TypeField.tsx">
<path fill="#bbfeff" stroke="#000000" d="M426.6952,-135.5C426.6952,-135.5 368.9797,-135.5 368.9797,-135.5 366.1463,-135.5 363.313,-132.6667 363.313,-129.8333 363.313,-129.8333 363.313,-124.1667 363.313,-124.1667 363.313,-121.3333 366.1463,-118.5 368.9797,-118.5 368.9797,-118.5 426.6952,-118.5 426.6952,-118.5 429.5285,-118.5 432.3618,-121.3333 432.3618,-124.1667 432.3618,-124.1667 432.3618,-129.8333 432.3618,-129.8333 432.3618,-132.6667 429.5285,-135.5 426.6952,-135.5"/>
<text text-anchor="middle" x="397.8374" y="-124.3" font-family="Helvetica,sans-Serif" font-size="9.00" fill="#000000">TypeField.tsx</text>
</a>
</g>
</g>
<!-- entry/EntryList.tsx&#45;&gt;fields/TypeField.tsx -->
<g id="edge8" class="edge">
<title>entry/EntryList.tsx&#45;&gt;fields/TypeField.tsx</title>
<path fill="none" stroke="#000000" stroke-width="2" stroke-opacity="0.200000" d="M324.7271,-509.0723C330.3067,-506.9326 335.4602,-503.7387 339.0767,-499 351.1122,-483.2296 335.0244,-157.7576 347.0767,-142 349.8401,-138.3869 353.4327,-135.6103 357.4305,-133.4817"/>
<polygon fill="#000000" fill-opacity="0.200000" stroke="#000000" stroke-width="2" stroke-opacity="0.200000" points="358.4646,-135.3202 363.0934,-130.9631 356.7577,-131.4826 358.4646,-135.3202"/>
</g>
<!-- filters/EntryListFilter.tsx -->
<g id="node10" class="node">
<title>filters/EntryListFilter.tsx</title>
<g id="a_node10"><a xlink:href="filters/EntryListFilter.tsx" xlink:title="EntryListFilter.tsx">
<path fill="#bbfeff" stroke="#000000" d="M434.1916,-506.5C434.1916,-506.5 361.4832,-506.5 361.4832,-506.5 358.6498,-506.5 355.8165,-503.6667 355.8165,-500.8333 355.8165,-500.8333 355.8165,-495.1667 355.8165,-495.1667 355.8165,-492.3333 358.6498,-489.5 361.4832,-489.5 361.4832,-489.5 434.1916,-489.5 434.1916,-489.5 437.025,-489.5 439.8583,-492.3333 439.8583,-495.1667 439.8583,-495.1667 439.8583,-500.8333 439.8583,-500.8333 439.8583,-503.6667 437.025,-506.5 434.1916,-506.5"/>
<text text-anchor="middle" x="397.8374" y="-495.3" font-family="Helvetica,sans-Serif" font-size="9.00" fill="#000000">EntryListFilter.tsx</text>
</a>
</g>
</g>
<!-- entry/EntryList.tsx&#45;&gt;filters/EntryListFilter.tsx -->
<g id="edge9" class="edge">
<title>entry/EntryList.tsx&#45;&gt;filters/EntryListFilter.tsx</title>
<path fill="none" stroke="#000000" stroke-width="2" stroke-opacity="0.200000" d="M324.6644,-508.3771C332.5003,-507.2659 341.0366,-506.0553 349.4219,-504.8661"/>
<polygon fill="#000000" fill-opacity="0.200000" stroke="#000000" stroke-width="2" stroke-opacity="0.200000" points="350.145,-506.8847 355.7907,-503.9629 349.5552,-502.7263 350.145,-506.8847"/>
</g>
<!-- types.tsx -->
<g id="node24" class="node">
<title>types.tsx</title>
<g id="a_node24"><a xlink:href="types.tsx" xlink:title="types.tsx">
<path fill="#bbfeff" stroke="#000000" d="M630.0037,-244.5C630.0037,-244.5 587.3371,-244.5 587.3371,-244.5 584.5037,-244.5 581.6704,-241.6667 581.6704,-238.8333 581.6704,-238.8333 581.6704,-233.1667 581.6704,-233.1667 581.6704,-230.3333 584.5037,-227.5 587.3371,-227.5 587.3371,-227.5 630.0037,-227.5 630.0037,-227.5 632.8371,-227.5 635.6704,-230.3333 635.6704,-233.1667 635.6704,-233.1667 635.6704,-238.8333 635.6704,-238.8333 635.6704,-241.6667 632.8371,-244.5 630.0037,-244.5"/>
<text text-anchor="middle" x="608.6704" y="-233.3" font-family="Helvetica,sans-Serif" font-size="9.00" fill="#000000">types.tsx</text>
</a>
</g>
</g>
<!-- fields/fieldProps.tsx&#45;&gt;types.tsx -->
<g id="edge32" class="edge">
<title>fields/fieldProps.tsx&#45;&gt;types.tsx</title>
<path fill="none" stroke="#000000" stroke-width="2" stroke-opacity="0.200000" d="M433.1753,-164.5137C479.2207,-175.6622 554.2041,-194.0296 556.656,-196 566.7267,-204.0929 559.993,-213.4245 569.656,-222 571.5937,-223.7196 573.7579,-225.2324 576.0466,-226.5625"/>
<polygon fill="#000000" fill-opacity="0.200000" stroke="#000000" stroke-width="2" stroke-opacity="0.200000" points="575.2621,-228.5188 581.565,-229.3462 577.1537,-224.7689 575.2621,-228.5188"/>
</g>
<!-- fields/AvatarField.tsx -->
<g id="node15" class="node">
<title>fields/AvatarField.tsx</title>
<g id="a_node15"><a xlink:href="fields/AvatarField.tsx" xlink:title="AvatarField.tsx">
<path fill="#bbfeff" stroke="#000000" d="M640.8659,-138.5C640.8659,-138.5 576.4749,-138.5 576.4749,-138.5 573.6415,-138.5 570.8082,-135.6667 570.8082,-132.8333 570.8082,-132.8333 570.8082,-127.1667 570.8082,-127.1667 570.8082,-124.3333 573.6415,-121.5 576.4749,-121.5 576.4749,-121.5 640.8659,-121.5 640.8659,-121.5 643.6993,-121.5 646.5326,-124.3333 646.5326,-127.1667 646.5326,-127.1667 646.5326,-132.8333 646.5326,-132.8333 646.5326,-135.6667 643.6993,-138.5 640.8659,-138.5"/>
<text text-anchor="middle" x="608.6704" y="-127.3" font-family="Helvetica,sans-Serif" font-size="9.00" fill="#000000">AvatarField.tsx</text>
</a>
</g>
</g>
<!-- fields/TypeField.tsx&#45;&gt;fields/AvatarField.tsx -->
<g id="edge25" class="edge">
<title>fields/TypeField.tsx&#45;&gt;fields/AvatarField.tsx</title>
<path fill="none" stroke="#000000" stroke-width="2" stroke-opacity="0.200000" d="M429.6095,-118.4361C439.3242,-116.2033 450.0904,-114.1127 460.113,-113 502.759,-108.2655 514.2821,-106.2511 556.656,-113 564.9548,-114.3218 573.7284,-116.7596 581.6581,-119.3846"/>
<polygon fill="#000000" fill-opacity="0.200000" stroke="#000000" stroke-width="2" stroke-opacity="0.200000" points="581.1788,-121.4406 587.5356,-121.413 582.549,-117.4704 581.1788,-121.4406"/>
</g>
<!-- fields/AvatarsField.tsx -->
<g id="node16" class="node">
<title>fields/AvatarsField.tsx</title>
<g id="a_node16"><a xlink:href="fields/AvatarsField.tsx" xlink:title="AvatarsField.tsx">
<path fill="#bbfeff" stroke="#000000" d="M542.5793,-164.5C542.5793,-164.5 474.1897,-164.5 474.1897,-164.5 471.3564,-164.5 468.5231,-161.6667 468.5231,-158.8333 468.5231,-158.8333 468.5231,-153.1667 468.5231,-153.1667 468.5231,-150.3333 471.3564,-147.5 474.1897,-147.5 474.1897,-147.5 542.5793,-147.5 542.5793,-147.5 545.4126,-147.5 548.246,-150.3333 548.246,-153.1667 548.246,-153.1667 548.246,-158.8333 548.246,-158.8333 548.246,-161.6667 545.4126,-164.5 542.5793,-164.5"/>
<text text-anchor="middle" x="508.3845" y="-153.3" font-family="Helvetica,sans-Serif" font-size="9.00" fill="#000000">AvatarsField.tsx</text>
</a>
</g>
</g>
<!-- fields/TypeField.tsx&#45;&gt;fields/AvatarsField.tsx -->
<g id="edge26" class="edge">
<title>fields/TypeField.tsx&#45;&gt;fields/AvatarsField.tsx</title>
<path fill="none" stroke="#000000" stroke-width="2" stroke-opacity="0.200000" d="M430.4073,-135.5441C442.7788,-138.7896 456.987,-142.5168 469.8575,-145.8931"/>
<polygon fill="#000000" fill-opacity="0.200000" stroke="#000000" stroke-width="2" stroke-opacity="0.200000" points="469.3289,-147.9255 475.6654,-147.4168 470.3947,-143.8629 469.3289,-147.9255"/>
</g>
<!-- fields/EntriesField.tsx -->
<g id="node17" class="node">
<title>fields/EntriesField.tsx</title>
<g id="a_node17"><a xlink:href="fields/EntriesField.tsx" xlink:title="EntriesField.tsx">
<path fill="#bbfeff" stroke="#000000" d="M541.2384,-62.5C541.2384,-62.5 475.5307,-62.5 475.5307,-62.5 472.6973,-62.5 469.864,-59.6667 469.864,-56.8333 469.864,-56.8333 469.864,-51.1667 469.864,-51.1667 469.864,-48.3333 472.6973,-45.5 475.5307,-45.5 475.5307,-45.5 541.2384,-45.5 541.2384,-45.5 544.0717,-45.5 546.905,-48.3333 546.905,-51.1667 546.905,-51.1667 546.905,-56.8333 546.905,-56.8333 546.905,-59.6667 544.0717,-62.5 541.2384,-62.5"/>
<text text-anchor="middle" x="508.3845" y="-51.3" font-family="Helvetica,sans-Serif" font-size="9.00" fill="#000000">EntriesField.tsx</text>
</a>
</g>
</g>
<!-- fields/TypeField.tsx&#45;&gt;fields/EntriesField.tsx -->
<g id="edge27" class="edge">
<title>fields/TypeField.tsx&#45;&gt;fields/EntriesField.tsx</title>
<path fill="none" stroke="#000000" stroke-width="2" stroke-opacity="0.200000" d="M432.3549,-122.0604C437.8235,-119.9885 443.0165,-117.0785 447.113,-113 461.8659,-98.3121 445.4003,-82.7282 460.113,-68 461.3849,-66.7268 462.7652,-65.5678 464.2282,-64.513"/>
<polygon fill="#000000" fill-opacity="0.200000" stroke="#000000" stroke-width="2" stroke-opacity="0.200000" points="465.4508,-66.2273 469.4833,-61.3131 463.2664,-62.64 465.4508,-66.2273"/>
</g>
<!-- fields/EntryField.tsx -->
<g id="node18" class="node">
<title>fields/EntryField.tsx</title>
<g id="a_node18"><a xlink:href="fields/EntryField.tsx" xlink:title="EntryField.tsx">
<path fill="#bbfeff" stroke="#000000" d="M537.7337,-91.5C537.7337,-91.5 479.0354,-91.5 479.0354,-91.5 476.202,-91.5 473.3687,-88.6667 473.3687,-85.8333 473.3687,-85.8333 473.3687,-80.1667 473.3687,-80.1667 473.3687,-77.3333 476.202,-74.5 479.0354,-74.5 479.0354,-74.5 537.7337,-74.5 537.7337,-74.5 540.567,-74.5 543.4003,-77.3333 543.4003,-80.1667 543.4003,-80.1667 543.4003,-85.8333 543.4003,-85.8333 543.4003,-88.6667 540.567,-91.5 537.7337,-91.5"/>
<text text-anchor="middle" x="508.3845" y="-80.3" font-family="Helvetica,sans-Serif" font-size="9.00" fill="#000000">EntryField.tsx</text>
</a>
</g>
</g>
<!-- fields/TypeField.tsx&#45;&gt;fields/EntryField.tsx -->
<g id="edge28" class="edge">
<title>fields/TypeField.tsx&#45;&gt;fields/EntryField.tsx</title>
<path fill="none" stroke="#000000" stroke-width="2" stroke-opacity="0.200000" d="M432.5973,-119.3583C437.6244,-117.6216 442.6141,-115.5231 447.113,-113 453.9711,-109.1538 453.4144,-105.1177 460.113,-101 464.4943,-98.3068 469.3427,-95.9153 474.2274,-93.8259"/>
<polygon fill="#000000" fill-opacity="0.200000" stroke="#000000" stroke-width="2" stroke-opacity="0.200000" points="475.1765,-95.7074 479.9523,-91.5119 473.6026,-91.8134 475.1765,-95.7074"/>
</g>
<!-- fields/TypographyField.tsx -->
<g id="node21" class="node">
<title>fields/TypographyField.tsx</title>
<g id="a_node21"><a xlink:href="fields/TypographyField.tsx" xlink:title="TypographyField.tsx">
<path fill="#bbfeff" stroke="#000000" d="M550.7619,-33.5C550.7619,-33.5 466.0071,-33.5 466.0071,-33.5 463.1738,-33.5 460.3405,-30.6667 460.3405,-27.8333 460.3405,-27.8333 460.3405,-22.1667 460.3405,-22.1667 460.3405,-19.3333 463.1738,-16.5 466.0071,-16.5 466.0071,-16.5 550.7619,-16.5 550.7619,-16.5 553.5952,-16.5 556.4286,-19.3333 556.4286,-22.1667 556.4286,-22.1667 556.4286,-27.8333 556.4286,-27.8333 556.4286,-30.6667 553.5952,-33.5 550.7619,-33.5"/>
<text text-anchor="middle" x="508.3845" y="-22.3" font-family="Helvetica,sans-Serif" font-size="9.00" fill="#000000">TypographyField.tsx</text>
</a>
</g>
</g>
<!-- fields/TypeField.tsx&#45;&gt;fields/TypographyField.tsx -->
<g id="edge29" class="edge">
<title>fields/TypeField.tsx&#45;&gt;fields/TypographyField.tsx</title>
<path fill="none" stroke="#000000" stroke-width="2" stroke-opacity="0.200000" d="M432.4793,-122.5143C438.002,-120.4001 443.1816,-117.3584 447.113,-113 469.4793,-88.2046 437.8145,-63.8563 460.113,-39 460.5792,-38.4804 461.0633,-37.9796 461.5639,-37.4969"/>
<polygon fill="#000000" fill-opacity="0.200000" stroke="#000000" stroke-width="2" stroke-opacity="0.200000" points="463.0614,-38.9903 466.4699,-33.6245 460.4592,-35.6935 463.0614,-38.9903"/>
</g>
<!-- fields/UnknownField.tsx -->
<g id="node22" class="node">
<title>fields/UnknownField.tsx</title>
<g id="a_node22"><a xlink:href="fields/UnknownField.tsx" xlink:title="UnknownField.tsx">
<path fill="#bbfeff" stroke="#000000" d="M546.2467,-135.5C546.2467,-135.5 470.5224,-135.5 470.5224,-135.5 467.689,-135.5 464.8557,-132.6667 464.8557,-129.8333 464.8557,-129.8333 464.8557,-124.1667 464.8557,-124.1667 464.8557,-121.3333 467.689,-118.5 470.5224,-118.5 470.5224,-118.5 546.2467,-118.5 546.2467,-118.5 549.08,-118.5 551.9133,-121.3333 551.9133,-124.1667 551.9133,-124.1667 551.9133,-129.8333 551.9133,-129.8333 551.9133,-132.6667 549.08,-135.5 546.2467,-135.5"/>
<text text-anchor="middle" x="508.3845" y="-124.3" font-family="Helvetica,sans-Serif" font-size="9.00" fill="#000000">UnknownField.tsx</text>
</a>
</g>
</g>
<!-- fields/TypeField.tsx&#45;&gt;fields/UnknownField.tsx -->
<g id="edge30" class="edge">
<title>fields/TypeField.tsx&#45;&gt;fields/UnknownField.tsx</title>
<path fill="none" stroke="#000000" stroke-width="2" stroke-opacity="0.200000" d="M432.5119,-127C440.7435,-127 449.6864,-127 458.4487,-127"/>
<polygon fill="#000000" fill-opacity="0.200000" stroke="#000000" stroke-width="2" stroke-opacity="0.200000" points="458.4751,-129.1001 464.475,-127 458.475,-124.9001 458.4751,-129.1001"/>
</g>
<!-- filters/EntryListFilter.tsx&#45;&gt;inputs/inputProps.tsx -->
<g id="edge37" class="edge">
<title>filters/EntryListFilter.tsx&#45;&gt;inputs/inputProps.tsx</title>
<path fill="none" stroke="#000000" stroke-width="2" stroke-opacity="0.200000" d="M412.2895,-506.6283C431.8206,-518.289 466.7158,-539.1225 488.6491,-552.2174"/>
<polygon fill="#000000" fill-opacity="0.200000" stroke="#000000" stroke-width="2" stroke-opacity="0.200000" points="487.7006,-554.0969 493.9289,-555.3695 489.8537,-550.4907 487.7006,-554.0969"/>
</g>
<!-- filters/EntryListFilter.tsx&#45;&gt;types.tsx -->
<g id="edge38" class="edge">
<title>filters/EntryListFilter.tsx&#45;&gt;types.tsx</title>
<path fill="none" stroke="#000000" stroke-width="2" stroke-opacity="0.200000" d="M439.8875,-489.4736C442.5162,-487.9358 444.9638,-486.1269 447.113,-484 461.607,-469.6568 445.5208,-454.2432 460.113,-440 491.9127,-408.9612 524.9027,-445.0862 556.656,-414 580.4697,-390.6866 599.7838,-288.6726 606.3023,-250.4924"/>
<polygon fill="#000000" fill-opacity="0.200000" stroke="#000000" stroke-width="2" stroke-opacity="0.200000" points="608.38,-250.7996 607.3035,-244.5345 604.2381,-250.1035 608.38,-250.7996"/>
</g>
<!-- filters/TypeFilter.tsx -->
<g id="node29" class="node">
<title>filters/TypeFilter.tsx</title>
<g id="a_node29"><a xlink:href="filters/TypeFilter.tsx" xlink:title="TypeFilter.tsx">
<path fill="#bbfeff" stroke="#000000" d="M537.2423,-506.5C537.2423,-506.5 479.5268,-506.5 479.5268,-506.5 476.6934,-506.5 473.8601,-503.6667 473.8601,-500.8333 473.8601,-500.8333 473.8601,-495.1667 473.8601,-495.1667 473.8601,-492.3333 476.6934,-489.5 479.5268,-489.5 479.5268,-489.5 537.2423,-489.5 537.2423,-489.5 540.0756,-489.5 542.9089,-492.3333 542.9089,-495.1667 542.9089,-495.1667 542.9089,-500.8333 542.9089,-500.8333 542.9089,-503.6667 540.0756,-506.5 537.2423,-506.5"/>
<text text-anchor="middle" x="508.3845" y="-495.3" font-family="Helvetica,sans-Serif" font-size="9.00" fill="#000000">TypeFilter.tsx</text>
</a>
</g>
</g>
<!-- filters/EntryListFilter.tsx&#45;&gt;filters/TypeFilter.tsx -->
<g id="edge39" class="edge">
<title>filters/EntryListFilter.tsx&#45;&gt;filters/TypeFilter.tsx</title>
<path fill="none" stroke="#000000" stroke-width="2" stroke-opacity="0.200000" d="M439.9459,-498C448.9687,-498 458.4885,-498 467.4656,-498"/>
<polygon fill="#000000" fill-opacity="0.200000" stroke="#000000" stroke-width="2" stroke-opacity="0.200000" points="467.581,-500.1001 473.581,-498 467.5809,-495.9001 467.581,-500.1001"/>
</g>
<!-- entry/EntryShow.tsx -->
<g id="node11" class="node">
<title>entry/EntryShow.tsx</title>
<g id="a_node11"><a xlink:href="entry/EntryShow.tsx" xlink:title="EntryShow.tsx">
<path fill="#bbfeff" stroke="#000000" d="M322.9278,-492.5C322.9278,-492.5 261.2055,-492.5 261.2055,-492.5 258.3721,-492.5 255.5388,-489.6667 255.5388,-486.8333 255.5388,-486.8333 255.5388,-481.1667 255.5388,-481.1667 255.5388,-478.3333 258.3721,-475.5 261.2055,-475.5 261.2055,-475.5 322.9278,-475.5 322.9278,-475.5 325.7612,-475.5 328.5945,-478.3333 328.5945,-481.1667 328.5945,-481.1667 328.5945,-486.8333 328.5945,-486.8333 328.5945,-489.6667 325.7612,-492.5 322.9278,-492.5"/>
<text text-anchor="middle" x="292.0667" y="-481.3" font-family="Helvetica,sans-Serif" font-size="9.00" fill="#000000">EntryShow.tsx</text>
</a>
</g>
</g>
<!-- entry/EntryShow.tsx&#45;&gt;hooks/useFields.tsx -->
<g id="edge13" class="edge">
<title>entry/EntryShow.tsx&#45;&gt;hooks/useFields.tsx</title>
<path fill="none" stroke="#000000" stroke-width="2" stroke-opacity="0.200000" d="M298.7845,-475.3402C308.7684,-462.6732 328.3615,-438.5812 347.0767,-420 358.0645,-409.0908 371.4649,-397.8151 381.7376,-389.5485"/>
<polygon fill="#000000" fill-opacity="0.200000" stroke="#000000" stroke-width="2" stroke-opacity="0.200000" points="383.1232,-391.1295 386.505,-385.7468 380.5046,-387.8457 383.1232,-391.1295"/>
</g>
<!-- entry/EntryShow.tsx&#45;&gt;fields/fieldProps.tsx -->
<g id="edge11" class="edge">
<title>entry/EntryShow.tsx&#45;&gt;fields/fieldProps.tsx</title>
<path fill="none" stroke="#000000" stroke-width="2" stroke-opacity="0.200000" d="M300.258,-475.3669C311.4443,-462.9443 331.0276,-438.783 339.0767,-414 346.5639,-390.9469 336.0984,-217.6098 347.0767,-196 353.1351,-184.0744 364.5595,-174.5812 375.0381,-167.8414"/>
<polygon fill="#000000" fill-opacity="0.200000" stroke="#000000" stroke-width="2" stroke-opacity="0.200000" points="376.3709,-169.4881 380.398,-164.5695 374.1826,-165.9032 376.3709,-169.4881"/>
</g>
<!-- entry/EntryShow.tsx&#45;&gt;fields/TypeField.tsx -->
<g id="edge12" class="edge">
<title>entry/EntryShow.tsx&#45;&gt;fields/TypeField.tsx</title>
<path fill="none" stroke="#000000" stroke-width="2" stroke-opacity="0.200000" d="M300.2831,-475.375C311.4993,-462.9621 331.1178,-438.8121 339.0767,-414 343.6941,-399.6048 337.8504,-153.9758 347.0767,-142 349.8527,-138.3966 353.4531,-135.6259 357.4552,-133.5006"/>
<polygon fill="#000000" fill-opacity="0.200000" stroke="#000000" stroke-width="2" stroke-opacity="0.200000" points="358.4901,-135.3389 363.1218,-130.9849 356.7858,-131.5002 358.4901,-135.3389"/>
</g>
<!-- entry/EntryTitle.tsx -->
<g id="node12" class="node">
<title>entry/EntryTitle.tsx</title>
<g id="a_node12"><a xlink:href="entry/EntryTitle.tsx" xlink:title="EntryTitle.tsx">
<path fill="#bbfeff" stroke="#000000" d="M233.3121,-492.5C233.3121,-492.5 177.2846,-492.5 177.2846,-492.5 174.4512,-492.5 171.6179,-489.6667 171.6179,-486.8333 171.6179,-486.8333 171.6179,-481.1667 171.6179,-481.1667 171.6179,-478.3333 174.4512,-475.5 177.2846,-475.5 177.2846,-475.5 233.3121,-475.5 233.3121,-475.5 236.1454,-475.5 238.9788,-478.3333 238.9788,-481.1667 238.9788,-481.1667 238.9788,-486.8333 238.9788,-486.8333 238.9788,-489.6667 236.1454,-492.5 233.3121,-492.5"/>
<text text-anchor="middle" x="205.2983" y="-481.3" font-family="Helvetica,sans-Serif" font-size="9.00" fill="#000000">EntryTitle.tsx</text>
</a>
</g>
</g>
<!-- entry/entryCrud.tsx -->
<g id="node13" class="node">
<title>entry/entryCrud.tsx</title>
<g id="a_node13"><a xlink:href="entry/entryCrud.tsx" xlink:title="entryCrud.tsx">
<path fill="#bbfeff" stroke="#000000" d="M234.1499,-550.5C234.1499,-550.5 176.4467,-550.5 176.4467,-550.5 173.6134,-550.5 170.7801,-547.6667 170.7801,-544.8333 170.7801,-544.8333 170.7801,-539.1667 170.7801,-539.1667 170.7801,-536.3333 173.6134,-533.5 176.4467,-533.5 176.4467,-533.5 234.1499,-533.5 234.1499,-533.5 236.9833,-533.5 239.8166,-536.3333 239.8166,-539.1667 239.8166,-539.1667 239.8166,-544.8333 239.8166,-544.8333 239.8166,-547.6667 236.9833,-550.5 234.1499,-550.5"/>
<text text-anchor="middle" x="205.2983" y="-539.3" font-family="Helvetica,sans-Serif" font-size="9.00" fill="#000000">entryCrud.tsx</text>
</a>
</g>
</g>
<!-- entry/entryCrud.tsx&#45;&gt;entry/EntryCreate.tsx -->
<g id="edge14" class="edge">
<title>entry/entryCrud.tsx&#45;&gt;entry/EntryCreate.tsx</title>
<path fill="none" stroke="#000000" stroke-width="2" stroke-opacity="0.200000" d="M230.8624,-550.5441C240.1354,-553.6434 250.7231,-557.182 260.4555,-560.4348"/>
<polygon fill="#000000" fill-opacity="0.200000" stroke="#000000" stroke-width="2" stroke-opacity="0.200000" points="260.0292,-562.5065 266.3855,-562.4168 261.3606,-558.5231 260.0292,-562.5065"/>
</g>
<!-- entry/entryCrud.tsx&#45;&gt;entry/EntryEdit.tsx -->
<g id="edge15" class="edge">
<title>entry/entryCrud.tsx&#45;&gt;entry/EntryEdit.tsx</title>
<path fill="none" stroke="#000000" stroke-width="2" stroke-opacity="0.200000" d="M240.0904,-542C244.2718,-542 248.5641,-542 252.8035,-542"/>
<polygon fill="#000000" fill-opacity="0.200000" stroke="#000000" stroke-width="2" stroke-opacity="0.200000" points="252.9577,-544.1001 258.9577,-542 252.9577,-539.9001 252.9577,-544.1001"/>
</g>
<!-- entry/entryCrud.tsx&#45;&gt;entry/EntryList.tsx -->
<g id="edge16" class="edge">
<title>entry/entryCrud.tsx&#45;&gt;entry/EntryList.tsx</title>
<path fill="none" stroke="#000000" stroke-width="2" stroke-opacity="0.200000" d="M230.8624,-533.4559C240.1354,-530.3566 250.7231,-526.818 260.4555,-523.5652"/>
<polygon fill="#000000" fill-opacity="0.200000" stroke="#000000" stroke-width="2" stroke-opacity="0.200000" points="261.3606,-525.4769 266.3855,-521.5832 260.0292,-521.4935 261.3606,-525.4769"/>
</g>
<!-- entry/entryCrud.tsx&#45;&gt;entry/EntryShow.tsx -->
<g id="edge17" class="edge">
<title>entry/entryCrud.tsx&#45;&gt;entry/EntryShow.tsx</title>
<path fill="none" stroke="#000000" stroke-width="2" stroke-opacity="0.200000" d="M214.8375,-533.4116C221.8768,-527.0273 231.6519,-518.0636 240.0566,-510 245.0464,-505.2128 245.2304,-502.7196 251.0596,-499 253.2163,-497.6238 255.5172,-496.3497 257.8866,-495.1747"/>
<polygon fill="#000000" fill-opacity="0.200000" stroke="#000000" stroke-width="2" stroke-opacity="0.200000" points="258.9171,-497.0129 263.5041,-492.6117 257.1737,-493.1918 258.9171,-497.0129"/>
</g>
<!-- entry/index.ts -->
<g id="node14" class="node">
<title>entry/index.ts</title>
<g id="a_node14"><a xlink:href="entry/index.ts" xlink:title="index.ts">
<path fill="#ddfeff" stroke="#000000" d="M133.6034,-528.5C133.6034,-528.5 90.9367,-528.5 90.9367,-528.5 88.1034,-528.5 85.27,-525.6667 85.27,-522.8333 85.27,-522.8333 85.27,-517.1667 85.27,-517.1667 85.27,-514.3333 88.1034,-511.5 90.9367,-511.5 90.9367,-511.5 133.6034,-511.5 133.6034,-511.5 136.4367,-511.5 139.27,-514.3333 139.27,-517.1667 139.27,-517.1667 139.27,-522.8333 139.27,-522.8333 139.27,-525.6667 136.4367,-528.5 133.6034,-528.5"/>
<text text-anchor="middle" x="112.27" y="-517.3" font-family="Helvetica,sans-Serif" font-size="9.00" fill="#000000">index.ts</text>
</a>
</g>
</g>
<!-- entry/index.ts&#45;&gt;entry/EntryCreate.tsx -->
<g id="edge18" class="edge">
<title>entry/index.ts&#45;&gt;entry/EntryCreate.tsx</title>
<path fill="none" stroke="#000000" stroke-width="2" stroke-opacity="0.200000" d="M120.7841,-528.8114C131.3582,-539.1039 150.4678,-555.6563 170.54,-563 194.692,-571.8363 223.3271,-574.0819 246.7333,-574.0049"/>
<polygon fill="#000000" fill-opacity="0.200000" stroke="#000000" stroke-width="2" stroke-opacity="0.200000" points="246.9015,-576.1031 252.8759,-573.9316 246.8513,-571.9034 246.9015,-576.1031"/>
</g>
<!-- entry/index.ts&#45;&gt;entry/EntryEdit.tsx -->
<g id="edge20" class="edge">
<title>entry/index.ts&#45;&gt;entry/EntryEdit.tsx</title>
<path fill="none" stroke="#000000" stroke-width="2" stroke-opacity="0.200000" d="M122.1259,-528.7758C133.0619,-537.8726 151.6682,-551.5146 170.54,-557 200.9667,-565.8439 237.1592,-559.3046 262.0891,-552.2972"/>
<polygon fill="#000000" fill-opacity="0.200000" stroke="#000000" stroke-width="2" stroke-opacity="0.200000" points="262.6893,-554.3097 267.859,-550.6105 261.5108,-550.2784 262.6893,-554.3097"/>
</g>
<!-- entry/index.ts&#45;&gt;entry/EntryList.tsx -->
<g id="edge21" class="edge">
<title>entry/index.ts&#45;&gt;entry/EntryList.tsx</title>
<path fill="none" stroke="#000000" stroke-width="2" stroke-opacity="0.200000" d="M139.5773,-518.9369C169.8186,-517.7595 218.8199,-515.8517 253.09,-514.5175"/>
<polygon fill="#000000" fill-opacity="0.200000" stroke="#000000" stroke-width="2" stroke-opacity="0.200000" points="253.3959,-516.6072 259.3097,-514.2753 253.2325,-512.4104 253.3959,-516.6072"/>
</g>
<!-- entry/index.ts&#45;&gt;entry/EntryShow.tsx -->
<g id="edge22" class="edge">
<title>entry/index.ts&#45;&gt;entry/EntryShow.tsx</title>
<path fill="none" stroke="#000000" stroke-width="2" stroke-opacity="0.200000" d="M139.3726,-516.4916C165.3626,-512.9051 205.6237,-506.7662 240.0566,-499 246.107,-497.6354 252.4947,-495.9774 258.6435,-494.268"/>
<polygon fill="#000000" fill-opacity="0.200000" stroke="#000000" stroke-width="2" stroke-opacity="0.200000" points="259.4933,-496.2097 264.6914,-492.5504 258.3459,-492.1695 259.4933,-496.2097"/>
</g>
<!-- entry/index.ts&#45;&gt;entry/EntryTitle.tsx -->
<g id="edge23" class="edge">
<title>entry/index.ts&#45;&gt;entry/EntryTitle.tsx</title>
<path fill="none" stroke="#000000" stroke-width="2" stroke-opacity="0.200000" d="M134.3164,-511.4685C147.1982,-506.4835 163.58,-500.1441 177.3594,-494.8118"/>
<polygon fill="#000000" fill-opacity="0.200000" stroke="#000000" stroke-width="2" stroke-opacity="0.200000" points="178.2501,-496.7189 183.0878,-492.595 176.7342,-492.802 178.2501,-496.7189"/>
</g>
<!-- entry/index.ts&#45;&gt;entry/entryCrud.tsx -->
<g id="edge19" class="edge">
<title>entry/index.ts&#45;&gt;entry/entryCrud.tsx</title>
<path fill="none" stroke="#000000" stroke-width="2" stroke-opacity="0.200000" d="M139.6784,-526.4817C147.3661,-528.2998 155.8965,-530.3171 164.1941,-532.2794"/>
<polygon fill="#000000" fill-opacity="0.200000" stroke="#000000" stroke-width="2" stroke-opacity="0.200000" points="164.1538,-534.4277 170.4761,-533.765 165.1205,-530.3404 164.1538,-534.4277"/>
</g>
<!-- fields/AvatarsField.tsx&#45;&gt;fields/AvatarField.tsx -->
<g id="edge24" class="edge">
<title>fields/AvatarsField.tsx&#45;&gt;fields/AvatarField.tsx</title>
<path fill="none" stroke="#000000" stroke-width="2" stroke-opacity="0.200000" d="M541.2219,-147.4866C550.3992,-145.1073 560.4581,-142.4995 569.9418,-140.0407"/>
<polygon fill="#000000" fill-opacity="0.200000" stroke="#000000" stroke-width="2" stroke-opacity="0.200000" points="570.4783,-142.0711 575.7593,-138.5325 569.4243,-138.0055 570.4783,-142.0711"/>
</g>
<!-- fields/PriceField.tsx -->
<g id="node19" class="node">
<title>fields/PriceField.tsx</title>
<g id="a_node19"><a xlink:href="fields/PriceField.tsx" xlink:title="PriceField.tsx">
<path fill="#bbfeff" stroke="#000000" d="M427.1839,-106.5C427.1839,-106.5 368.4909,-106.5 368.4909,-106.5 365.6576,-106.5 362.8242,-103.6667 362.8242,-100.8333 362.8242,-100.8333 362.8242,-95.1667 362.8242,-95.1667 362.8242,-92.3333 365.6576,-89.5 368.4909,-89.5 368.4909,-89.5 427.1839,-89.5 427.1839,-89.5 430.0173,-89.5 432.8506,-92.3333 432.8506,-95.1667 432.8506,-95.1667 432.8506,-100.8333 432.8506,-100.8333 432.8506,-103.6667 430.0173,-106.5 427.1839,-106.5"/>
<text text-anchor="middle" x="397.8374" y="-95.3" font-family="Helvetica,sans-Serif" font-size="9.00" fill="#000000">PriceField.tsx</text>
</a>
</g>
</g>
<!-- fields/TestField.tsx -->
<g id="node20" class="node">
<title>fields/TestField.tsx</title>
<g id="a_node20"><a xlink:href="fields/TestField.tsx" xlink:title="TestField.tsx">
<path fill="#ccffcc" stroke="#000000" d="M319.4141,-164.5C319.4141,-164.5 264.7192,-164.5 264.7192,-164.5 261.8858,-164.5 259.0525,-161.6667 259.0525,-158.8333 259.0525,-158.8333 259.0525,-153.1667 259.0525,-153.1667 259.0525,-150.3333 261.8858,-147.5 264.7192,-147.5 264.7192,-147.5 319.4141,-147.5 319.4141,-147.5 322.2475,-147.5 325.0808,-150.3333 325.0808,-153.1667 325.0808,-153.1667 325.0808,-158.8333 325.0808,-158.8333 325.0808,-161.6667 322.2475,-164.5 319.4141,-164.5"/>
<text text-anchor="middle" x="292.0667" y="-153.3" font-family="Helvetica,sans-Serif" font-size="9.00" fill="#000000">TestField.tsx</text>
</a>
</g>
</g>
<!-- helpers.tsx -->
<g id="node23" class="node">
<title>helpers.tsx</title>
<g id="a_node23"><a xlink:href="helpers.tsx" xlink:title="helpers.tsx">
<path fill="#bbfeff" stroke="#000000" d="M632.5247,-215.5C632.5247,-215.5 584.8161,-215.5 584.8161,-215.5 581.9828,-215.5 579.1494,-212.6667 579.1494,-209.8333 579.1494,-209.8333 579.1494,-204.1667 579.1494,-204.1667 579.1494,-201.3333 581.9828,-198.5 584.8161,-198.5 584.8161,-198.5 632.5247,-198.5 632.5247,-198.5 635.358,-198.5 638.1914,-201.3333 638.1914,-204.1667 638.1914,-204.1667 638.1914,-209.8333 638.1914,-209.8333 638.1914,-212.6667 635.358,-215.5 632.5247,-215.5"/>
<text text-anchor="middle" x="608.6704" y="-204.3" font-family="Helvetica,sans-Serif" font-size="9.00" fill="#000000">helpers.tsx</text>
</a>
</g>
</g>
<!-- fields/TypographyField.tsx&#45;&gt;helpers.tsx -->
<g id="edge31" class="edge">
<title>fields/TypographyField.tsx&#45;&gt;helpers.tsx</title>
<path fill="none" stroke="#000000" stroke-width="2" stroke-opacity="0.200000" d="M550.9439,-33.7338C553.064,-35.2324 554.9971,-36.975 556.656,-39 578.4208,-65.5669 548.7285,-165.7687 569.656,-193 570.8838,-194.5977 572.3098,-196.0133 573.8758,-197.2676"/>
<polygon fill="#000000" fill-opacity="0.200000" stroke="#000000" stroke-width="2" stroke-opacity="0.200000" points="572.7633,-199.0492 578.9363,-200.5674 575.0574,-195.5311 572.7633,-199.0492"/>
</g>
<!-- fields/index.ts -->
<g id="node25" class="node">
<title>fields/index.ts</title>
<g id="a_node25"><a xlink:href="fields/index.ts" xlink:title="index.ts">
<path fill="#ddfeff" stroke="#000000" d="M313.4,-135.5C313.4,-135.5 270.7333,-135.5 270.7333,-135.5 267.9,-135.5 265.0667,-132.6667 265.0667,-129.8333 265.0667,-129.8333 265.0667,-124.1667 265.0667,-124.1667 265.0667,-121.3333 267.9,-118.5 270.7333,-118.5 270.7333,-118.5 313.4,-118.5 313.4,-118.5 316.2333,-118.5 319.0667,-121.3333 319.0667,-124.1667 319.0667,-124.1667 319.0667,-129.8333 319.0667,-129.8333 319.0667,-132.6667 316.2333,-135.5 313.4,-135.5"/>
<text text-anchor="middle" x="292.0667" y="-124.3" font-family="Helvetica,sans-Serif" font-size="9.00" fill="#000000">index.ts</text>
</a>
</g>
</g>
<!-- fields/index.ts&#45;&gt;fields/fieldProps.tsx -->
<g id="edge33" class="edge">
<title>fields/index.ts&#45;&gt;fields/fieldProps.tsx</title>
<path fill="none" stroke="#000000" stroke-width="2" stroke-opacity="0.200000" d="M319.3052,-134.4682C331.8321,-137.9028 346.892,-142.0319 360.4585,-145.7515"/>
<polygon fill="#000000" fill-opacity="0.200000" stroke="#000000" stroke-width="2" stroke-opacity="0.200000" points="360.2304,-147.8664 366.5722,-147.4278 361.341,-143.8159 360.2304,-147.8664"/>
</g>
<!-- fields/index.ts&#45;&gt;fields/TypeField.tsx -->
<g id="edge35" class="edge">
<title>fields/index.ts&#45;&gt;fields/TypeField.tsx</title>
<path fill="none" stroke="#000000" stroke-width="2" stroke-opacity="0.200000" d="M319.3052,-127C330.7724,-127 344.3622,-127 356.986,-127"/>
<polygon fill="#000000" fill-opacity="0.200000" stroke="#000000" stroke-width="2" stroke-opacity="0.200000" points="357.092,-129.1001 363.092,-127 357.0919,-124.9001 357.092,-129.1001"/>
</g>
<!-- fields/index.ts&#45;&gt;fields/PriceField.tsx -->
<g id="edge34" class="edge">
<title>fields/index.ts&#45;&gt;fields/PriceField.tsx</title>
<path fill="none" stroke="#000000" stroke-width="2" stroke-opacity="0.200000" d="M319.3052,-119.5318C331.8321,-116.0972 346.892,-111.9681 360.4585,-108.2485"/>
<polygon fill="#000000" fill-opacity="0.200000" stroke="#000000" stroke-width="2" stroke-opacity="0.200000" points="361.341,-110.1841 366.5722,-106.5722 360.2304,-106.1336 361.341,-110.1841"/>
</g>
<!-- fields/index.ts&#45;&gt;fields/TypographyField.tsx -->
<g id="edge36" class="edge">
<title>fields/index.ts&#45;&gt;fields/TypographyField.tsx</title>
<path fill="none" stroke="#000000" stroke-width="2" stroke-opacity="0.200000" d="M301.5941,-118.1662C312.1089,-108.7614 329.8361,-93.8981 347.0767,-84 386.1507,-61.5671 435.293,-45.0617 469.007,-35.3015"/>
<polygon fill="#000000" fill-opacity="0.200000" stroke="#000000" stroke-width="2" stroke-opacity="0.200000" points="469.9235,-37.2238 475.1167,-33.5576 468.7707,-33.1851 469.9235,-37.2238"/>
</g>
<!-- filters/AnyFilter.tsx -->
<g id="node26" class="node">
<title>filters/AnyFilter.tsx</title>
<g id="a_node26"><a xlink:href="filters/AnyFilter.tsx" xlink:title="AnyFilter.tsx">
<path fill="#bbfeff" stroke="#000000" d="M535.2345,-462.5C535.2345,-462.5 481.5346,-462.5 481.5346,-462.5 478.7013,-462.5 475.8679,-459.6667 475.8679,-456.8333 475.8679,-456.8333 475.8679,-451.1667 475.8679,-451.1667 475.8679,-448.3333 478.7013,-445.5 481.5346,-445.5 481.5346,-445.5 535.2345,-445.5 535.2345,-445.5 538.0678,-445.5 540.9011,-448.3333 540.9011,-451.1667 540.9011,-451.1667 540.9011,-456.8333 540.9011,-456.8333 540.9011,-459.6667 538.0678,-462.5 535.2345,-462.5"/>
<text text-anchor="middle" x="508.3845" y="-451.3" font-family="Helvetica,sans-Serif" font-size="9.00" fill="#000000">AnyFilter.tsx</text>
</a>
</g>
</g>
<!-- filters/DateFilter.tsx -->
<g id="node27" class="node">
<title>filters/DateFilter.tsx</title>
<g id="a_node27"><a xlink:href="filters/DateFilter.tsx" xlink:title="DateFilter.tsx">
<path fill="#bbfeff" stroke="#000000" d="M637.0245,-506.5C637.0245,-506.5 580.3164,-506.5 580.3164,-506.5 577.483,-506.5 574.6497,-503.6667 574.6497,-500.8333 574.6497,-500.8333 574.6497,-495.1667 574.6497,-495.1667 574.6497,-492.3333 577.483,-489.5 580.3164,-489.5 580.3164,-489.5 637.0245,-489.5 637.0245,-489.5 639.8578,-489.5 642.6911,-492.3333 642.6911,-495.1667 642.6911,-495.1667 642.6911,-500.8333 642.6911,-500.8333 642.6911,-503.6667 639.8578,-506.5 637.0245,-506.5"/>
<text text-anchor="middle" x="608.6704" y="-495.3" font-family="Helvetica,sans-Serif" font-size="9.00" fill="#000000">DateFilter.tsx</text>
</a>
</g>
</g>
<!-- filters/DatetimeFilter.tsx -->
<g id="node28" class="node">
<title>filters/DatetimeFilter.tsx</title>
<g id="a_node28"><a xlink:href="filters/DatetimeFilter.tsx" xlink:title="DatetimeFilter.tsx">
<path fill="#ccffcc" stroke="#000000" d="M434.6936,-477.5C434.6936,-477.5 360.9813,-477.5 360.9813,-477.5 358.1479,-477.5 355.3146,-474.6667 355.3146,-471.8333 355.3146,-471.8333 355.3146,-466.1667 355.3146,-466.1667 355.3146,-463.3333 358.1479,-460.5 360.9813,-460.5 360.9813,-460.5 434.6936,-460.5 434.6936,-460.5 437.5269,-460.5 440.3602,-463.3333 440.3602,-466.1667 440.3602,-466.1667 440.3602,-471.8333 440.3602,-471.8333 440.3602,-474.6667 437.5269,-477.5 434.6936,-477.5"/>
<text text-anchor="middle" x="397.8374" y="-466.3" font-family="Helvetica,sans-Serif" font-size="9.00" fill="#000000">DatetimeFilter.tsx</text>
</a>
</g>
</g>
<!-- filters/TypeFilter.tsx&#45;&gt;filters/DateFilter.tsx -->
<g id="edge42" class="edge">
<title>filters/TypeFilter.tsx&#45;&gt;filters/DateFilter.tsx</title>
<path fill="none" stroke="#000000" stroke-width="2" stroke-opacity="0.200000" d="M542.8972,-498C551.0242,-498 559.7598,-498 568.1251,-498"/>
<polygon fill="#000000" fill-opacity="0.200000" stroke="#000000" stroke-width="2" stroke-opacity="0.200000" points="568.4338,-500.1001 574.4338,-498 568.4338,-495.9001 568.4338,-500.1001"/>
</g>
<!-- filters/TextSearch.tsx -->
<g id="node30" class="node">
<title>filters/TextSearch.tsx</title>
<g id="a_node30"><a xlink:href="filters/TextSearch.tsx" xlink:title="TextSearch.tsx">
<path fill="#bbfeff" stroke="#000000" d="M640.5267,-477.5C640.5267,-477.5 576.8141,-477.5 576.8141,-477.5 573.9808,-477.5 571.1475,-474.6667 571.1475,-471.8333 571.1475,-471.8333 571.1475,-466.1667 571.1475,-466.1667 571.1475,-463.3333 573.9808,-460.5 576.8141,-460.5 576.8141,-460.5 640.5267,-460.5 640.5267,-460.5 643.36,-460.5 646.1934,-463.3333 646.1934,-466.1667 646.1934,-466.1667 646.1934,-471.8333 646.1934,-471.8333 646.1934,-474.6667 643.36,-477.5 640.5267,-477.5"/>
<text text-anchor="middle" x="608.6704" y="-466.3" font-family="Helvetica,sans-Serif" font-size="9.00" fill="#000000">TextSearch.tsx</text>
</a>
</g>
</g>
<!-- filters/TypeFilter.tsx&#45;&gt;filters/TextSearch.tsx -->
<g id="edge43" class="edge">
<title>filters/TypeFilter.tsx&#45;&gt;filters/TextSearch.tsx</title>
<path fill="none" stroke="#000000" stroke-width="2" stroke-opacity="0.200000" d="M537.9312,-489.4559C548.9522,-486.2689 561.5798,-482.6173 573.0873,-479.2897"/>
<polygon fill="#000000" fill-opacity="0.200000" stroke="#000000" stroke-width="2" stroke-opacity="0.200000" points="573.8079,-481.2674 578.9884,-477.5832 572.6411,-477.2327 573.8079,-481.2674"/>
</g>
<!-- filters/TypeFilter.tsx&#45;&gt;inputs/EntriesInput.tsx -->
<g id="edge40" class="edge">
<title>filters/TypeFilter.tsx&#45;&gt;inputs/EntriesInput.tsx</title>
<path fill="none" stroke="#000000" stroke-width="2" stroke-opacity="0.200000" d="M522.4283,-506.6434C534.8014,-514.2196 553.3434,-525.4782 569.656,-535 575.5175,-538.4214 581.9172,-542.0671 587.8068,-545.3865"/>
<polygon fill="#000000" fill-opacity="0.200000" stroke="#000000" stroke-width="2" stroke-opacity="0.200000" points="586.7825,-547.2197 593.0422,-548.3273 588.8395,-543.5579 586.7825,-547.2197"/>
</g>
<!-- filters/TypeFilter.tsx&#45;&gt;inputs/MissingInput.tsx -->
<g id="edge41" class="edge">
<title>filters/TypeFilter.tsx&#45;&gt;inputs/MissingInput.tsx</title>
<path fill="none" stroke="#000000" stroke-width="2" stroke-opacity="0.200000" d="M536.6271,-506.5791C571.5816,-517.1971 631.0613,-535.2649 668.521,-546.6439"/>
<polygon fill="#000000" fill-opacity="0.200000" stroke="#000000" stroke-width="2" stroke-opacity="0.200000" points="667.9855,-548.6759 674.3369,-548.4105 669.2063,-544.6572 667.9855,-548.6759"/>
</g>
<!-- inputs/EntriesInput.tsx&#45;&gt;inputs/MissingInput.tsx -->
<g id="edge62" class="edge">
<title>inputs/EntriesInput.tsx&#45;&gt;inputs/MissingInput.tsx</title>
<path fill="none" stroke="#000000" stroke-width="2" stroke-opacity="0.200000" d="M647.6946,-557C650.4168,-557 653.1757,-557 655.9333,-557"/>
<polygon fill="#000000" fill-opacity="0.200000" stroke="#000000" stroke-width="2" stroke-opacity="0.200000" points="656.3474,-559.1001 662.3473,-557 656.3473,-554.9001 656.3474,-559.1001"/>
</g>
<!-- filters/index.ts -->
<g id="node33" class="node">
<title>filters/index.ts</title>
<g id="a_node33"><a xlink:href="filters/index.ts" xlink:title="index.ts">
<path fill="#ddfeff" stroke="#000000" d="M419.1707,-448.5C419.1707,-448.5 376.5041,-448.5 376.5041,-448.5 373.6707,-448.5 370.8374,-445.6667 370.8374,-442.8333 370.8374,-442.8333 370.8374,-437.1667 370.8374,-437.1667 370.8374,-434.3333 373.6707,-431.5 376.5041,-431.5 376.5041,-431.5 419.1707,-431.5 419.1707,-431.5 422.0041,-431.5 424.8374,-434.3333 424.8374,-437.1667 424.8374,-437.1667 424.8374,-442.8333 424.8374,-442.8333 424.8374,-445.6667 422.0041,-448.5 419.1707,-448.5"/>
<text text-anchor="middle" x="397.8374" y="-437.3" font-family="Helvetica,sans-Serif" font-size="9.00" fill="#000000">index.ts</text>
</a>
</g>
</g>
<!-- filters/index.ts&#45;&gt;filters/AnyFilter.tsx -->
<g id="edge44" class="edge">
<title>filters/index.ts&#45;&gt;filters/AnyFilter.tsx</title>
<path fill="none" stroke="#000000" stroke-width="2" stroke-opacity="0.200000" d="M424.8803,-443.4248C438.3036,-445.1248 454.7634,-447.2093 469.5106,-449.0769"/>
<polygon fill="#000000" fill-opacity="0.200000" stroke="#000000" stroke-width="2" stroke-opacity="0.200000" points="469.4958,-451.1917 475.7121,-449.8623 470.0235,-447.025 469.4958,-451.1917"/>
</g>
<!-- filters/index.ts&#45;&gt;filters/TypeFilter.tsx -->
<g id="edge46" class="edge">
<title>filters/index.ts&#45;&gt;filters/TypeFilter.tsx</title>
<path fill="none" stroke="#000000" stroke-width="2" stroke-opacity="0.200000" d="M425.0608,-444.1795C432.8191,-446.4001 440.8546,-449.7989 447.113,-455 456.7447,-463.0044 450.7317,-471.7036 460.113,-480 463.015,-482.5663 466.3168,-484.7795 469.8,-486.6856"/>
<polygon fill="#000000" fill-opacity="0.200000" stroke="#000000" stroke-width="2" stroke-opacity="0.200000" points="469.0806,-488.672 475.3916,-489.4347 470.9337,-484.9029 469.0806,-488.672"/>
</g>
<!-- filters/index.ts&#45;&gt;filters/TextSearch.tsx -->
<g id="edge45" class="edge">
<title>filters/index.ts&#45;&gt;filters/TextSearch.tsx</title>
<path fill="none" stroke="#000000" stroke-width="2" stroke-opacity="0.200000" d="M425.0285,-445.5096C432.5339,-447.7503 440.4414,-450.8269 447.113,-455 454.3119,-459.5029 452.3298,-465.606 460.113,-469 493.1368,-483.4007 534.3528,-482.0858 564.9882,-477.9182"/>
<polygon fill="#000000" fill-opacity="0.200000" stroke="#000000" stroke-width="2" stroke-opacity="0.200000" points="565.3324,-479.9903 570.9686,-477.0505 564.7292,-475.8339 565.3324,-479.9903"/>
</g>
<!-- hooks/index.ts -->
<g id="node34" class="node">
<title>hooks/index.ts</title>
<g id="a_node34"><a xlink:href="hooks/index.ts" xlink:title="index.ts">
<path fill="#ddfeff" stroke="#000000" d="M313.4,-363.5C313.4,-363.5 270.7333,-363.5 270.7333,-363.5 267.9,-363.5 265.0667,-360.6667 265.0667,-357.8333 265.0667,-357.8333 265.0667,-352.1667 265.0667,-352.1667 265.0667,-349.3333 267.9,-346.5 270.7333,-346.5 270.7333,-346.5 313.4,-346.5 313.4,-346.5 316.2333,-346.5 319.0667,-349.3333 319.0667,-352.1667 319.0667,-352.1667 319.0667,-357.8333 319.0667,-357.8333 319.0667,-360.6667 316.2333,-363.5 313.4,-363.5"/>
<text text-anchor="middle" x="292.0667" y="-352.3" font-family="Helvetica,sans-Serif" font-size="9.00" fill="#000000">index.ts</text>
</a>
</g>
</g>
<!-- hooks/index.ts&#45;&gt;hooks/useFields.tsx -->
<g id="edge49" class="edge">
<title>hooks/index.ts&#45;&gt;hooks/useFields.tsx</title>
<path fill="none" stroke="#000000" stroke-width="2" stroke-opacity="0.200000" d="M319.3052,-360.6655C330.8776,-363.0726 344.6117,-365.9292 357.3332,-368.5752"/>
<polygon fill="#000000" fill-opacity="0.200000" stroke="#000000" stroke-width="2" stroke-opacity="0.200000" points="357.181,-370.6885 363.483,-369.8544 358.0364,-366.5765 357.181,-370.6885"/>
</g>
<!-- hooks/index.ts&#45;&gt;hooks/useApi.tsx -->
<g id="edge47" class="edge">
<title>hooks/index.ts&#45;&gt;hooks/useApi.tsx</title>
<path fill="none" stroke="#000000" stroke-width="2" stroke-opacity="0.200000" d="M319.4635,-356.3932C358.6893,-358.3878 430.8415,-362.0569 473.7291,-364.2377"/>
<polygon fill="#000000" fill-opacity="0.200000" stroke="#000000" stroke-width="2" stroke-opacity="0.200000" points="473.7381,-366.3408 479.837,-364.5483 473.9515,-362.1462 473.7381,-366.3408"/>
</g>
<!-- hooks/useDatamanager.tsx -->
<g id="node36" class="node">
<title>hooks/useDatamanager.tsx</title>
<g id="a_node36"><a xlink:href="hooks/useDatamanager.tsx" xlink:title="useDatamanager.tsx">
<path fill="#bbfeff" stroke="#000000" d="M441.223,-312.5C441.223,-312.5 354.4518,-312.5 354.4518,-312.5 351.6184,-312.5 348.7851,-309.6667 348.7851,-306.8333 348.7851,-306.8333 348.7851,-301.1667 348.7851,-301.1667 348.7851,-298.3333 351.6184,-295.5 354.4518,-295.5 354.4518,-295.5 441.223,-295.5 441.223,-295.5 444.0564,-295.5 446.8897,-298.3333 446.8897,-301.1667 446.8897,-301.1667 446.8897,-306.8333 446.8897,-306.8333 446.8897,-309.6667 444.0564,-312.5 441.223,-312.5"/>
<text text-anchor="middle" x="397.8374" y="-301.3" font-family="Helvetica,sans-Serif" font-size="9.00" fill="#000000">useDatamanager.tsx</text>
</a>
</g>
</g>
<!-- hooks/index.ts&#45;&gt;hooks/useDatamanager.tsx -->
<g id="edge48" class="edge">
<title>hooks/index.ts&#45;&gt;hooks/useDatamanager.tsx</title>
<path fill="none" stroke="#000000" stroke-width="2" stroke-opacity="0.200000" d="M303.2935,-346.235C314.0251,-338.21 330.9176,-326.4776 347.0767,-319 350.5246,-317.4045 354.1828,-315.9331 357.8934,-314.5873"/>
<polygon fill="#000000" fill-opacity="0.200000" stroke="#000000" stroke-width="2" stroke-opacity="0.200000" points="358.7533,-316.5124 363.7449,-312.5762 357.3881,-312.5405 358.7533,-316.5124"/>
</g>
<!-- hooks/useSession.tsx -->
<g id="node37" class="node">
<title>hooks/useSession.tsx</title>
<g id="a_node37"><a xlink:href="hooks/useSession.tsx" xlink:title="useSession.tsx">
<path fill="#bbfeff" stroke="#000000" d="M430.2024,-341.5C430.2024,-341.5 365.4724,-341.5 365.4724,-341.5 362.639,-341.5 359.8057,-338.6667 359.8057,-335.8333 359.8057,-335.8333 359.8057,-330.1667 359.8057,-330.1667 359.8057,-327.3333 362.639,-324.5 365.4724,-324.5 365.4724,-324.5 430.2024,-324.5 430.2024,-324.5 433.0358,-324.5 435.8691,-327.3333 435.8691,-330.1667 435.8691,-330.1667 435.8691,-335.8333 435.8691,-335.8333 435.8691,-338.6667 433.0358,-341.5 430.2024,-341.5"/>
<text text-anchor="middle" x="397.8374" y="-330.3" font-family="Helvetica,sans-Serif" font-size="9.00" fill="#000000">useSession.tsx</text>
</a>
</g>
</g>
<!-- hooks/index.ts&#45;&gt;hooks/useSession.tsx -->
<g id="edge50" class="edge">
<title>hooks/index.ts&#45;&gt;hooks/useSession.tsx</title>
<path fill="none" stroke="#000000" stroke-width="2" stroke-opacity="0.200000" d="M319.3052,-349.3345C329.7299,-347.1661 341.9089,-344.633 353.5215,-342.2176"/>
<polygon fill="#000000" fill-opacity="0.200000" stroke="#000000" stroke-width="2" stroke-opacity="0.200000" points="354.0836,-344.2457 359.5302,-340.9678 353.2283,-340.1337 354.0836,-344.2457"/>
</g>
<!-- providers/dataProvider.tsx -->
<g id="node38" class="node">
<title>providers/dataProvider.tsx</title>
<g id="a_node38"><a xlink:href="providers/dataProvider.tsx" xlink:title="dataProvider.tsx">
<path fill="#bbfeff" stroke="#000000" d="M542.7573,-224.5C542.7573,-224.5 474.0118,-224.5 474.0118,-224.5 471.1785,-224.5 468.3451,-221.6667 468.3451,-218.8333 468.3451,-218.8333 468.3451,-213.1667 468.3451,-213.1667 468.3451,-210.3333 471.1785,-207.5 474.0118,-207.5 474.0118,-207.5 542.7573,-207.5 542.7573,-207.5 545.5906,-207.5 548.4239,-210.3333 548.4239,-213.1667 548.4239,-213.1667 548.4239,-218.8333 548.4239,-218.8333 548.4239,-221.6667 545.5906,-224.5 542.7573,-224.5"/>
<text text-anchor="middle" x="508.3845" y="-213.3" font-family="Helvetica,sans-Serif" font-size="9.00" fill="#000000">dataProvider.tsx</text>
</a>
</g>
</g>
<!-- hooks/useDatamanager.tsx&#45;&gt;providers/dataProvider.tsx -->
<g id="edge51" class="edge">
<title>hooks/useDatamanager.tsx&#45;&gt;providers/dataProvider.tsx</title>
<path fill="none" stroke="#000000" stroke-width="2" stroke-opacity="0.200000" d="M428.3238,-295.4674C435.3278,-292.243 442.1626,-287.8746 447.113,-282 462.1864,-264.1128 444.0058,-247.9622 460.113,-231 461.095,-229.9659 462.1468,-229.0026 463.2557,-228.1054"/>
<polygon fill="#000000" fill-opacity="0.200000" stroke="#000000" stroke-width="2" stroke-opacity="0.200000" points="464.6613,-229.6892 468.4427,-224.5793 462.3,-226.2157 464.6613,-229.6892"/>
</g>
<!-- providers/authProvider.tsx -->
<g id="node39" class="node">
<title>providers/authProvider.tsx</title>
<g id="a_node39"><a xlink:href="providers/authProvider.tsx" xlink:title="authProvider.tsx">
<path fill="#bbfeff" stroke="#000000" d="M542.7573,-253.5C542.7573,-253.5 474.0118,-253.5 474.0118,-253.5 471.1785,-253.5 468.3451,-250.6667 468.3451,-247.8333 468.3451,-247.8333 468.3451,-242.1667 468.3451,-242.1667 468.3451,-239.3333 471.1785,-236.5 474.0118,-236.5 474.0118,-236.5 542.7573,-236.5 542.7573,-236.5 545.5906,-236.5 548.4239,-239.3333 548.4239,-242.1667 548.4239,-242.1667 548.4239,-247.8333 548.4239,-247.8333 548.4239,-250.6667 545.5906,-253.5 542.7573,-253.5"/>
<text text-anchor="middle" x="508.3845" y="-242.3" font-family="Helvetica,sans-Serif" font-size="9.00" fill="#000000">authProvider.tsx</text>
</a>
</g>
</g>
<!-- hooks/useSession.tsx&#45;&gt;providers/authProvider.tsx -->
<g id="edge53" class="edge">
<title>hooks/useSession.tsx&#45;&gt;providers/authProvider.tsx</title>
<path fill="none" stroke="#000000" stroke-width="2" stroke-opacity="0.200000" d="M436.3567,-326.0299C440.2862,-324.2002 443.9779,-321.8972 447.113,-319 459.2999,-307.7377 450.425,-297.4722 460.113,-284 467.7555,-273.3723 479.017,-264.0477 488.7407,-257.1832"/>
<polygon fill="#000000" fill-opacity="0.200000" stroke="#000000" stroke-width="2" stroke-opacity="0.200000" points="490.1775,-258.7453 493.9518,-253.6301 487.8114,-255.2752 490.1775,-258.7453"/>
</g>
<!-- providers/dataProvider.tsx&#45;&gt;helpers.tsx -->
<g id="edge68" class="edge">
<title>providers/dataProvider.tsx&#45;&gt;helpers.tsx</title>
<path fill="none" stroke="#000000" stroke-width="2" stroke-opacity="0.200000" d="M548.5968,-212.3912C556.5153,-211.6806 564.7779,-210.9391 572.5516,-210.2414"/>
<polygon fill="#000000" fill-opacity="0.200000" stroke="#000000" stroke-width="2" stroke-opacity="0.200000" points="573.1599,-212.2954 578.9482,-209.6674 572.7844,-208.1122 573.1599,-212.2954"/>
</g>
<!-- providers/dataProvider.tsx&#45;&gt;types.tsx -->
<g id="edge69" class="edge">
<title>providers/dataProvider.tsx&#45;&gt;types.tsx</title>
<path fill="none" stroke="#000000" stroke-width="2" stroke-opacity="0.200000" d="M548.5968,-224.0195C557.3684,-225.7689 566.5624,-227.6024 575.0462,-229.2943"/>
<polygon fill="#000000" fill-opacity="0.200000" stroke="#000000" stroke-width="2" stroke-opacity="0.200000" points="575.0817,-231.4427 581.3766,-230.5568 575.9032,-227.3238 575.0817,-231.4427"/>
</g>
<!-- index.ts -->
<g id="node40" class="node">
<title>index.ts</title>
<g id="a_node40"><a xlink:href="index.ts" xlink:title="index.ts">
<path fill="#ddfeff" stroke="#000000" d="M48.3333,-447.5C48.3333,-447.5 5.6667,-447.5 5.6667,-447.5 2.8333,-447.5 0,-444.6667 0,-441.8333 0,-441.8333 0,-436.1667 0,-436.1667 0,-433.3333 2.8333,-430.5 5.6667,-430.5 5.6667,-430.5 48.3333,-430.5 48.3333,-430.5 51.1667,-430.5 54,-433.3333 54,-436.1667 54,-436.1667 54,-441.8333 54,-441.8333 54,-444.6667 51.1667,-447.5 48.3333,-447.5"/>
<text text-anchor="middle" x="27" y="-436.3" font-family="Helvetica,sans-Serif" font-size="9.00" fill="#000000">index.ts</text>
</a>
</g>
</g>
<!-- index.ts&#45;&gt;LocaleSwitcher.tsx -->
<g id="edge59" class="edge">
<title>index.ts&#45;&gt;LocaleSwitcher.tsx</title>
<path fill="none" stroke="#000000" stroke-width="2" stroke-opacity="0.200000" d="M27.6157,-447.9478C30.1825,-482.7242 41.1282,-608.3855 67,-637 67.469,-637.5187 67.9567,-638.0184 68.4614,-638.4997"/>
<polygon fill="#000000" fill-opacity="0.200000" stroke="#000000" stroke-width="2" stroke-opacity="0.200000" points="67.3909,-640.3276 73.4155,-642.356 69.9707,-637.0133 67.3909,-640.3276"/>
</g>
<!-- index.ts&#45;&gt;entry/index.ts -->
<g id="edge54" class="edge">
<title>index.ts&#45;&gt;entry/index.ts</title>
<path fill="none" stroke="#000000" stroke-width="2" stroke-opacity="0.200000" d="M36.1254,-447.6684C51.127,-461.9189 81.0814,-490.3732 98.6165,-507.0302"/>
<polygon fill="#000000" fill-opacity="0.200000" stroke="#000000" stroke-width="2" stroke-opacity="0.200000" points="97.4137,-508.7841 103.2102,-511.3939 100.3064,-505.739 97.4137,-508.7841"/>
</g>
<!-- index.ts&#45;&gt;fields/index.ts -->
<g id="edge55" class="edge">
<title>index.ts&#45;&gt;fields/index.ts</title>
<path fill="none" stroke="#000000" stroke-width="2" stroke-opacity="0.200000" d="M27.9101,-430.1151C31.4767,-396.6945 45.3775,-278.9154 67,-249 114.5356,-183.2329 208.7466,-149.2203 258.8767,-135.1202"/>
<polygon fill="#000000" fill-opacity="0.200000" stroke="#000000" stroke-width="2" stroke-opacity="0.200000" points="259.5383,-137.1163 264.7655,-133.4986 258.4232,-133.067 259.5383,-137.1163"/>
</g>
<!-- index.ts&#45;&gt;filters/index.ts -->
<g id="edge56" class="edge">
<title>index.ts&#45;&gt;filters/index.ts</title>
<path fill="none" stroke="#000000" stroke-width="2" stroke-opacity="0.200000" d="M54.2686,-439.0735C120.9198,-439.2533 291.9263,-439.7144 364.4844,-439.9101"/>
<polygon fill="#000000" fill-opacity="0.200000" stroke="#000000" stroke-width="2" stroke-opacity="0.200000" points="364.7738,-442.0108 370.7794,-439.927 364.7852,-437.8108 364.7738,-442.0108"/>
</g>
<!-- index.ts&#45;&gt;hooks/index.ts -->
<g id="edge57" class="edge">
<title>index.ts&#45;&gt;hooks/index.ts</title>
<path fill="none" stroke="#000000" stroke-width="2" stroke-opacity="0.200000" d="M39.8968,-430.4468C47.5291,-425.6791 57.5291,-419.9291 67,-416 132.7133,-388.738 214.2655,-370.1596 258.9448,-361.1896"/>
<polygon fill="#000000" fill-opacity="0.200000" stroke="#000000" stroke-width="2" stroke-opacity="0.200000" points="259.5228,-363.2159 264.9991,-359.9877 258.705,-359.0963 259.5228,-363.2159"/>
</g>
<!-- inputs/index.ts -->
<g id="node41" class="node">
<title>inputs/index.ts</title>
<g id="a_node41"><a xlink:href="inputs/index.ts" xlink:title="index.ts">
<path fill="#ddfeff" stroke="#000000" d="M419.1707,-565.5C419.1707,-565.5 376.5041,-565.5 376.5041,-565.5 373.6707,-565.5 370.8374,-562.6667 370.8374,-559.8333 370.8374,-559.8333 370.8374,-554.1667 370.8374,-554.1667 370.8374,-551.3333 373.6707,-548.5 376.5041,-548.5 376.5041,-548.5 419.1707,-548.5 419.1707,-548.5 422.0041,-548.5 424.8374,-551.3333 424.8374,-554.1667 424.8374,-554.1667 424.8374,-559.8333 424.8374,-559.8333 424.8374,-562.6667 422.0041,-565.5 419.1707,-565.5"/>
<text text-anchor="middle" x="397.8374" y="-554.3" font-family="Helvetica,sans-Serif" font-size="9.00" fill="#000000">index.ts</text>
</a>
</g>
</g>
<!-- index.ts&#45;&gt;inputs/index.ts -->
<g id="edge58" class="edge">
<title>index.ts&#45;&gt;inputs/index.ts</title>
<path fill="none" stroke="#000000" stroke-width="2" stroke-opacity="0.200000" d="M54.1789,-440.7192C129.1987,-445.5236 333.9759,-459.0612 339.0767,-464 350.4835,-475.0446 337.6327,-522.2364 347.0767,-535 351.5398,-541.032 358.0064,-545.4313 364.8378,-548.6326"/>
<polygon fill="#000000" fill-opacity="0.200000" stroke="#000000" stroke-width="2" stroke-opacity="0.200000" points="364.2802,-550.6754 370.6261,-551.0495 365.8986,-546.7997 364.2802,-550.6754"/>
</g>
<!-- providers/index.ts -->
<g id="node42" class="node">
<title>providers/index.ts</title>
<g id="a_node42"><a xlink:href="providers/index.ts" xlink:title="index.ts">
<path fill="#ddfeff" stroke="#000000" d="M419.1707,-253.5C419.1707,-253.5 376.5041,-253.5 376.5041,-253.5 373.6707,-253.5 370.8374,-250.6667 370.8374,-247.8333 370.8374,-247.8333 370.8374,-242.1667 370.8374,-242.1667 370.8374,-239.3333 373.6707,-236.5 376.5041,-236.5 376.5041,-236.5 419.1707,-236.5 419.1707,-236.5 422.0041,-236.5 424.8374,-239.3333 424.8374,-242.1667 424.8374,-242.1667 424.8374,-247.8333 424.8374,-247.8333 424.8374,-250.6667 422.0041,-253.5 419.1707,-253.5"/>
<text text-anchor="middle" x="397.8374" y="-242.3" font-family="Helvetica,sans-Serif" font-size="9.00" fill="#000000">index.ts</text>
</a>
</g>
</g>
<!-- index.ts&#45;&gt;providers/index.ts -->
<g id="edge60" class="edge">
<title>index.ts&#45;&gt;providers/index.ts</title>
<path fill="none" stroke="#000000" stroke-width="2" stroke-opacity="0.200000" d="M31.4323,-430.4862C37.9358,-418.6386 51.0397,-397.0552 67,-383 157.4905,-303.3106 300.512,-265.1983 364.7167,-251.3752"/>
<polygon fill="#000000" fill-opacity="0.200000" stroke="#000000" stroke-width="2" stroke-opacity="0.200000" points="365.2447,-253.41 370.6796,-250.1127 364.3747,-249.3011 365.2447,-253.41"/>
</g>
<!-- themes.tsx -->
<g id="node43" class="node">
<title>themes.tsx</title>
<g id="a_node43"><a xlink:href="themes.tsx" xlink:title="themes.tsx">
<path fill="#bbfeff" stroke="#000000" d="M136.12,-630.5C136.12,-630.5 88.4201,-630.5 88.4201,-630.5 85.5867,-630.5 82.7534,-627.6667 82.7534,-624.8333 82.7534,-624.8333 82.7534,-619.1667 82.7534,-619.1667 82.7534,-616.3333 85.5867,-613.5 88.4201,-613.5 88.4201,-613.5 136.12,-613.5 136.12,-613.5 138.9533,-613.5 141.7866,-616.3333 141.7866,-619.1667 141.7866,-619.1667 141.7866,-624.8333 141.7866,-624.8333 141.7866,-627.6667 138.9533,-630.5 136.12,-630.5"/>
<text text-anchor="middle" x="112.27" y="-619.3" font-family="Helvetica,sans-Serif" font-size="9.00" fill="#000000">themes.tsx</text>
</a>
</g>
</g>
<!-- index.ts&#45;&gt;themes.tsx -->
<g id="edge61" class="edge">
<title>index.ts&#45;&gt;themes.tsx</title>
<path fill="none" stroke="#000000" stroke-width="2" stroke-opacity="0.200000" d="M27.9469,-447.9077C31.453,-479.288 44.6618,-584.1003 67,-608 69.7929,-610.9882 73.2085,-613.3437 76.8996,-615.1996"/>
<polygon fill="#000000" fill-opacity="0.200000" stroke="#000000" stroke-width="2" stroke-opacity="0.200000" points="76.1216,-617.1508 82.4642,-617.5768 77.7716,-613.2885 76.1216,-617.1508"/>
</g>
<!-- inputs/index.ts&#45;&gt;inputs/inputProps.tsx -->
<g id="edge66" class="edge">
<title>inputs/index.ts&#45;&gt;inputs/inputProps.tsx</title>
<path fill="none" stroke="#000000" stroke-width="2" stroke-opacity="0.200000" d="M424.8803,-558.7124C437.0751,-559.4846 451.7761,-560.4155 465.4223,-561.2796"/>
<polygon fill="#000000" fill-opacity="0.200000" stroke="#000000" stroke-width="2" stroke-opacity="0.200000" points="465.4844,-563.3876 471.6051,-561.6711 465.7499,-559.196 465.4844,-563.3876"/>
</g>
<!-- inputs/index.ts&#45;&gt;inputs/TypeInput.tsx -->
<g id="edge67" class="edge">
<title>inputs/index.ts&#45;&gt;inputs/TypeInput.tsx</title>
<path fill="none" stroke="#000000" stroke-width="2" stroke-opacity="0.200000" d="M421.5525,-565.581C438.3102,-571.6445 460.8878,-579.814 478.8204,-586.3026"/>
<polygon fill="#000000" fill-opacity="0.200000" stroke="#000000" stroke-width="2" stroke-opacity="0.200000" points="478.352,-588.3663 484.7086,-588.4332 479.7811,-584.4169 478.352,-588.3663"/>
</g>
<!-- providers/index.ts&#45;&gt;providers/dataProvider.tsx -->
<g id="edge71" class="edge">
<title>providers/index.ts&#45;&gt;providers/dataProvider.tsx</title>
<path fill="none" stroke="#000000" stroke-width="2" stroke-opacity="0.200000" d="M424.8803,-237.9058C438.4234,-234.353 455.0575,-229.9894 469.9052,-226.0944"/>
<polygon fill="#000000" fill-opacity="0.200000" stroke="#000000" stroke-width="2" stroke-opacity="0.200000" points="470.4413,-228.1248 475.7121,-224.571 469.3756,-224.0623 470.4413,-228.1248"/>
</g>
<!-- providers/index.ts&#45;&gt;providers/authProvider.tsx -->
<g id="edge70" class="edge">
<title>providers/index.ts&#45;&gt;providers/authProvider.tsx</title>
<path fill="none" stroke="#000000" stroke-width="2" stroke-opacity="0.200000" d="M424.8803,-245C436.0863,-245 449.4086,-245 462.084,-245"/>
<polygon fill="#000000" fill-opacity="0.200000" stroke="#000000" stroke-width="2" stroke-opacity="0.200000" points="462.2425,-247.1001 468.2424,-245 462.2424,-242.9001 462.2425,-247.1001"/>
</g>
</g>
</svg>
